<?xml version="1.0" standalone="no"?>
<!DOCTYPE svg PUBLIC "-//W3C//DTD SVG 20010904//EN"
 "http://www.w3.org/TR/2001/REC-SVG-20010904/DTD/svg10.dtd">
<svg version="1.0" xmlns="http://www.w3.org/2000/svg"
 width="1500.000000pt" height="500.000000pt" viewBox="0 0 1500.000000 500.000000"
 preserveAspectRatio="xMidYMid meet">

<g transform="translate(0.000000,500.000000) scale(0.100000,-0.100000)"
fill="#000000" stroke="none">
<path d="M13601 4946 c-5 -13 -19 -26 -30 -29 -12 -3 -21 -12 -21 -20 0 -9 -9
-19 -20 -22 -11 -3 -20 -12 -20 -19 0 -7 -11 -18 -25 -24 -14 -6 -25 -18 -25
-27 0 -8 -4 -15 -10 -15 -12 0 -120 -106 -120 -118 0 -5 -11 -14 -25 -20 -14
-6 -25 -18 -25 -27 0 -11 -11 -15 -39 -15 -30 0 -40 -4 -44 -20 -4 -18 0 -20
35 -20 31 0 41 4 45 20 3 11 14 20 23 20 10 0 21 9 25 19 3 11 15 23 25 26 10
3 22 15 25 26 4 10 12 19 20 19 8 0 17 9 20 20 3 11 10 20 14 20 12 0 81 67
81 78 0 6 9 14 20 17 11 3 20 11 20 17 0 5 14 23 31 39 29 27 37 29 106 29 66
0 75 -2 80 -20 3 -11 14 -20 24 -20 15 0 19 -7 19 -33 0 -35 15 -57 38 -57 22
0 8 72 -18 89 -11 7 -20 19 -20 27 0 7 -9 15 -19 19 -10 3 -21 15 -24 25 -5
18 -14 20 -81 20 -71 0 -77 -2 -85 -24z"/>
<path d="M2770 4775 c0 -33 -2 -35 -35 -35 -32 0 -35 -2 -35 -29 0 -26 -4 -30
-32 -33 l-33 -3 -3 -137 -3 -138 36 0 c33 0 35 -2 35 -35 0 -33 2 -35 35 -35
32 0 35 -2 35 -30 l0 -30 170 0 170 0 0 30 0 30 60 0 60 0 0 -30 0 -30 205 0
205 0 0 30 c0 25 4 30 25 30 21 0 25 -5 25 -30 l0 -30 105 0 105 0 0 65 0 65
60 0 60 0 0 -64 0 -65 108 -3 c59 -2 151 -2 205 0 l97 3 0 64 0 65 60 0 60 0
0 -65 0 -65 105 0 105 0 0 30 c0 25 4 30 25 30 21 0 25 -5 25 -30 l0 -30 205
0 205 0 0 30 c0 25 4 30 25 30 21 0 25 -5 25 -30 l0 -30 105 0 105 0 0 95 0
95 30 0 c27 0 30 -3 30 -30 0 -27 3 -30 30 -30 l30 0 0 -65 0 -65 105 0 105 0
0 270 0 271 -102 -3 -103 -3 -3 -62 c-3 -59 -4 -63 -27 -63 -21 0 -25 5 -25
30 0 28 -3 30 -35 30 -33 0 -35 2 -35 35 l0 35 -200 0 -200 0 0 -200 0 -200
-60 0 -60 0 -2 198 -3 197 -202 3 -203 2 0 -35 0 -35 -60 0 -60 0 0 35 0 35
-205 0 -205 0 0 -35 0 -35 -60 0 -60 0 0 35 0 35 -105 0 -105 0 0 -35 c0 -30
-3 -35 -24 -35 -21 0 -25 6 -28 33 l-3 32 -202 3 -203 2 0 -35 0 -35 -60 0
-60 0 0 35 0 35 -170 0 -170 0 0 -35z m300 -40 c0 -33 2 -35 36 -35 34 0 35
-1 32 -32 l-3 -33 -65 0 -65 0 -3 33 -3 32 -65 0 -64 0 0 -35 c0 -32 -2 -35
-30 -35 l-30 0 0 -95 0 -95 30 0 c28 0 30 -3 30 -35 l0 -35 65 0 65 0 0 35 0
35 70 0 70 0 0 -35 c0 -33 -2 -35 -34 -35 -32 0 -35 -3 -38 -32 l-3 -33 -130
0 -130 0 -3 33 c-3 28 -7 32 -33 32 -27 0 -29 3 -29 35 0 33 -2 35 -35 35
l-35 0 0 100 0 100 35 0 c32 0 35 2 35 30 0 27 3 30 30 30 28 0 30 3 30 35 l0
35 135 0 135 0 0 -35z m530 0 c0 -32 2 -35 30 -35 l30 0 0 -165 0 -165 -29 0
c-26 0 -30 -4 -33 -32 l-3 -33 -165 0 -165 0 -3 33 c-3 28 -7 32 -33 32 l-29
0 0 165 0 165 30 0 c26 0 30 4 30 28 0 16 3 32 7 35 3 4 80 7 170 7 l163 0 0
-35z m262 3 c3 -29 7 -33 36 -36 28 -3 32 -7 32 -33 0 -26 3 -29 30 -29 27 0
30 3 30 30 0 28 3 30 35 30 33 0 35 2 35 35 l0 35 65 0 65 0 0 -235 0 -235
-65 0 -65 0 0 135 0 135 -30 0 -30 0 0 -65 0 -65 -35 0 -35 0 0 65 0 65 -35 0
-35 0 0 -135 0 -135 -65 0 -65 0 0 235 0 235 64 0 65 0 3 -32z m528 -3 c0 -33
2 -35 35 -35 32 0 35 -2 35 -30 0 -27 3 -30 30 -30 27 0 30 3 30 29 0 26 4 30
33 33 28 3 32 7 35 36 l3 32 65 0 64 0 0 -235 0 -235 -65 0 -65 0 0 135 0 135
-35 0 -35 0 0 -65 0 -65 -35 0 -35 0 0 65 0 65 -30 0 -30 0 0 -135 0 -135 -65
0 -65 0 0 235 0 235 65 0 65 0 0 -35z m530 -165 l0 -200 95 0 95 0 0 200 0
200 70 0 70 0 0 -200 0 -200 -35 0 c-33 0 -35 -2 -35 -35 l0 -35 -165 0 -165
0 0 35 c0 33 -2 35 -35 35 l-35 0 0 200 0 200 70 0 70 0 0 -200z m530 165 c0
-32 2 -35 30 -35 27 0 30 -3 30 -30 0 -28 3 -30 35 -30 33 0 35 -2 35 -35 0
-32 2 -35 30 -35 l30 0 0 100 0 100 70 0 70 0 -2 -232 -3 -233 -65 0 -65 0 -3
68 -3 67 -34 0 c-32 0 -35 2 -35 30 0 27 -3 30 -30 30 -28 0 -30 3 -30 35 0
32 -2 35 -30 35 l-29 0 -3 -132 -3 -133 -65 0 -65 0 -3 233 -2 232 70 0 70 0
0 -35z m-2490 -105 l0 -30 100 0 100 0 0 -60 0 -59 -97 -3 -98 -3 -3 -32 c-3
-27 -7 -33 -28 -33 -21 0 -24 5 -24 35 0 33 -2 35 -35 35 l-36 0 3 58 c3 56 3
57 36 60 28 3 32 7 32 33 0 24 4 29 25 29 21 0 25 -5 25 -30z"/>
<path d="M3332 4538 l3 -163 98 -3 97 -3 0 166 0 165 -100 0 -100 0 2 -162z
m158 -3 l0 -125 -60 0 -60 0 0 125 0 125 60 0 60 0 0 -125z"/>
<path d="M5870 4735 l0 -75 65 0 65 0 0 -125 0 -125 -65 0 -65 0 0 -70 0 -70
235 0 235 0 0 70 0 70 -65 0 -65 0 0 125 0 125 65 0 65 0 0 75 0 75 -235 0
-235 0 0 -75z m430 0 l0 -35 -65 0 -65 0 0 -165 0 -165 65 0 65 0 0 -35 0 -35
-197 2 -198 3 -3 32 -3 32 68 3 68 3 3 162 2 162 -67 3 c-56 2 -68 6 -71 21
-9 46 -4 47 203 47 l195 0 0 -35z"/>
<path d="M6394 4796 c-3 -7 -4 -40 -2 -72 l3 -59 68 -3 67 -3 0 -194 0 -195
105 0 105 0 0 195 0 195 65 0 65 0 0 75 0 75 -235 0 c-190 0 -237 -3 -241 -14z
m436 -61 l0 -35 -65 0 -65 0 -2 -197 -3 -198 -65 0 -65 0 -3 198 -2 197 -65 0
-65 0 0 35 0 35 200 0 200 0 0 -35z"/>
<path d="M6920 4670 l0 -140 35 0 c33 0 35 -2 35 -35 0 -32 2 -35 30 -35 l30
0 0 -95 0 -95 105 0 105 0 0 95 0 95 35 0 c33 0 35 2 35 35 0 33 2 35 35 35
l36 0 -3 138 -3 137 -102 3 -103 3 0 -101 0 -100 -30 0 -30 0 0 100 0 100
-105 0 -105 0 0 -140z m170 0 l0 -100 65 0 65 0 0 100 0 100 70 0 70 0 0 -100
0 -100 -35 0 c-33 0 -35 -2 -35 -35 0 -32 -2 -35 -30 -35 l-29 0 -3 -97 -3
-98 -65 0 -65 0 -3 98 -3 97 -29 0 c-28 0 -30 3 -30 35 0 33 -2 35 -35 35
l-35 0 0 100 0 100 65 0 65 0 0 -100z"/>
<path d="M7980 4735 l0 -75 65 0 65 0 0 -195 0 -195 105 0 105 0 0 195 0 195
60 0 60 0 0 -195 0 -195 105 0 105 0 0 65 0 65 60 0 60 0 0 -64 0 -65 108 -3
c59 -2 151 -2 205 0 l97 3 0 29 c0 25 4 30 25 30 21 0 25 -5 25 -30 l0 -29
138 -3 c75 -2 257 -2 405 0 l267 3 0 29 c0 25 4 30 25 30 21 0 25 -5 25 -30
l0 -30 205 0 205 0 0 30 c0 27 3 30 30 30 l30 0 0 65 0 65 30 0 c27 0 30 -3
30 -30 0 -27 3 -30 29 -30 26 0 30 -4 33 -32 3 -29 7 -33 36 -36 28 -3 32 -7
32 -33 l0 -29 70 0 70 0 0 30 c0 28 3 30 35 30 33 0 35 2 35 35 0 33 2 35 35
35 32 0 35 2 35 30 0 25 4 30 25 30 25 0 25 0 25 -95 l0 -94 268 -3 c147 -2
313 -2 370 0 l102 3 0 29 c0 25 4 30 25 30 21 0 25 -5 25 -30 l0 -30 140 0
140 0 0 70 0 70 -35 0 c-31 0 -35 3 -35 25 0 22 4 25 35 25 l35 0 0 140 0 140
-35 0 c-33 0 -35 2 -35 35 l0 35 -600 0 -600 0 0 -100 0 -100 -60 0 -60 0 0
100 0 100 -105 0 -105 0 0 -35 c0 -31 -3 -35 -25 -35 -22 0 -25 4 -25 35 l0
35 -205 0 -205 0 0 -35 c0 -30 -3 -35 -24 -35 -21 0 -25 6 -28 33 l-3 32 -367
3 -368 2 0 -35 c0 -33 -2 -35 -35 -35 -32 0 -35 -2 -35 -30 0 -25 -4 -30 -25
-30 -24 0 -25 2 -25 65 l0 65 -105 0 -105 0 0 -65 c0 -63 -1 -65 -25 -65 -21
0 -25 5 -25 30 0 28 -3 30 -35 30 -33 0 -35 2 -35 35 l0 36 -137 -3 -138 -3
-3 -32 c-3 -29 -7 -33 -33 -33 -26 0 -29 -3 -29 -30 0 -27 -3 -30 -30 -30
l-30 0 0 65 0 65 -235 0 -235 0 0 -75z m440 0 l0 -35 -70 0 -70 0 0 -200 0
-200 -65 0 -65 0 0 200 0 200 -65 0 -65 0 0 35 0 35 200 0 200 0 0 -35z m390
0 c0 -33 2 -35 35 -35 32 0 35 -2 35 -30 0 -27 3 -30 30 -30 l30 0 0 -170 0
-170 -65 0 -65 0 0 70 0 71 -97 -3 -98 -3 -3 -67 -3 -68 -64 0 -65 0 0 170 0
170 30 0 c27 0 30 3 30 30 0 28 3 30 35 30 33 0 35 2 35 35 l0 35 100 0 100 0
0 -35z m330 -65 l0 -100 29 0 c26 0 30 4 33 33 3 28 7 32 36 35 28 3 32 7 32
32 0 25 4 29 33 32 28 3 32 7 35 36 l3 32 65 0 64 0 0 -35 c0 -32 -2 -35 -29
-35 -26 0 -30 -4 -33 -32 -3 -29 -7 -33 -35 -36 -29 -3 -33 -7 -33 -33 0 -27
-3 -29 -35 -29 -32 0 -35 -2 -35 -29 0 -26 4 -30 33 -33 28 -3 32 -7 35 -35 3
-28 7 -32 35 -35 28 -3 32 -7 35 -35 3 -29 7 -33 33 -33 27 0 29 -3 29 -35 l0
-36 -97 3 -98 3 -3 33 c-3 29 -6 32 -38 32 -32 0 -34 2 -34 35 0 32 -2 35 -30
35 l-30 0 0 -70 0 -70 -65 0 -65 0 0 235 0 235 65 0 65 0 0 -100z m860 65 l0
-35 -165 0 -165 0 0 -65 0 -65 130 0 130 0 0 -35 0 -35 -130 0 -130 0 0 -65 0
-65 166 0 165 0 -3 -32 -3 -33 -230 0 -230 0 -3 233 -2 232 235 0 235 0 0 -35z
m460 0 c0 -33 2 -35 35 -35 l35 0 0 -165 0 -165 -34 0 c-32 0 -35 -3 -38 -32
l-3 -33 -162 -3 -163 -2 0 35 c0 33 -2 35 -35 35 l-35 0 0 165 0 165 35 0 c33
0 35 2 35 35 l0 35 165 0 165 0 0 -35z m260 -65 l0 -100 35 0 c32 0 35 -2 35
-30 0 -27 3 -30 30 -30 27 0 30 3 30 30 0 28 3 30 35 30 l35 0 0 100 0 100 65
0 65 0 0 -135 0 -135 -30 0 c-27 0 -30 -3 -30 -30 0 -28 -3 -30 -35 -30 -33 0
-35 -2 -35 -35 0 -32 -2 -35 -29 -35 -26 0 -30 -4 -33 -32 -3 -29 -7 -33 -35
-36 -32 -3 -33 -2 -33 32 0 34 -2 36 -35 36 -33 0 -35 2 -35 35 0 33 -2 35
-35 35 -32 0 -35 2 -35 30 0 27 -3 30 -30 30 l-30 0 0 135 0 135 65 0 65 0 0
-100z m860 65 l0 -35 -165 0 -165 0 0 -65 0 -65 136 0 135 0 -3 -32 -3 -33
-132 -3 -133 -3 0 -64 0 -65 165 0 165 0 0 -35 0 -35 -230 0 -230 0 0 235 0
235 230 0 230 0 0 -35z m468 -2 c3 -29 7 -33 33 -33 l29 0 0 -100 0 -100 -65
0 -65 0 0 -29 c0 -26 4 -30 33 -33 28 -3 32 -7 35 -35 3 -29 7 -33 33 -33 27
0 29 -3 29 -35 l0 -36 -97 3 -98 3 -3 33 c-3 29 -6 32 -38 32 -32 0 -34 2 -34
35 0 32 -2 35 -30 35 l-30 0 0 -70 0 -70 -65 0 -65 0 0 235 0 235 198 -2 197
-3 3 -32z m-2548 -198 l0 -125 -30 0 c-28 0 -30 3 -30 35 0 32 -2 35 -30 35
l-30 0 0 60 0 60 30 0 c27 0 30 3 30 30 0 27 3 30 30 30 l30 0 0 -125z m520 0
l0 -125 -155 0 -155 0 0 25 0 25 130 0 130 0 0 75 0 75 -130 0 -130 0 0 25 0
25 155 0 155 0 0 -125z m1590 0 l0 -125 -160 0 -160 0 0 25 0 25 130 0 130 0
0 75 0 75 -130 0 -130 0 0 25 0 25 160 0 160 0 0 -125z"/>
<path d="M8678 4668 c-3 -29 -7 -33 -35 -36 l-33 -3 0 -60 0 -59 100 0 100 0
0 59 0 60 -32 3 c-29 3 -33 7 -36 36 -3 28 -7 32 -32 32 -25 0 -29 -4 -32 -32z
m92 -98 l0 -30 -60 0 -60 0 0 30 0 30 60 0 60 0 0 -30z"/>
<path d="M10200 4535 l0 -165 95 0 95 0 0 165 0 165 -95 0 -95 0 0 -165z m150
0 l0 -125 -60 0 -60 0 0 125 0 125 60 0 60 0 0 -125z"/>
<path d="M11780 4605 l0 -95 65 0 65 0 0 30 c0 28 3 30 35 30 l35 0 0 65 0 65
-100 0 -100 0 0 -95z m160 30 c0 -22 -4 -25 -35 -25 -33 0 -35 -2 -35 -35 0
-31 -3 -35 -25 -35 -24 0 -25 3 -25 60 l0 60 60 0 c57 0 60 -1 60 -25z"/>
<path d="M13859 4778 c-1 -7 -1 -32 -1 -56 -1 -34 -6 -47 -24 -59 -13 -8 -24
-22 -24 -29 0 -8 -6 -14 -14 -14 -20 0 -29 -17 -28 -52 0 -19 -5 -31 -16 -35
-24 -9 -32 -23 -32 -60 0 -18 -5 -33 -12 -33 -6 0 -30 -20 -54 -45 l-42 -45
-90 0 c-85 0 -91 1 -106 25 -9 14 -23 25 -30 25 -8 0 -16 9 -19 20 -3 11 -11
20 -19 20 -7 0 -18 10 -23 23 -10 21 -16 22 -137 25 -103 2 -128 5 -128 17 0
10 17 15 63 17 54 3 62 5 62 23 0 18 -6 20 -53 19 -40 -2 -58 -7 -73 -23 -19
-20 -30 -21 -185 -21 -157 0 -166 -1 -171 -20 -5 -18 -14 -20 -84 -20 -64 0
-80 -3 -91 -18 -7 -11 -30 -22 -52 -26 -26 -5 -40 -14 -43 -27 -4 -15 -14 -19
-53 -19 -61 0 -80 -7 -80 -31 0 -13 -7 -19 -21 -19 -12 0 -23 -8 -26 -19 -3
-11 -13 -21 -24 -24 -10 -3 -19 -12 -19 -20 0 -8 -9 -17 -21 -20 -11 -3 -23
-14 -26 -25 -3 -11 -13 -22 -24 -25 -10 -3 -19 -12 -19 -21 0 -13 -11 -16 -51
-16 -50 0 -89 -13 -89 -29 0 -10 -55 -71 -63 -71 -17 0 -67 -62 -67 -83 0 -36
19 -44 39 -18 13 17 25 22 52 19 32 -3 34 -5 37 -43 2 -30 9 -43 24 -50 26
-12 25 -29 -2 -33 -15 -3 -20 2 -20 17 0 14 -6 21 -20 21 -18 0 -20 -7 -20
-60 0 -49 3 -61 20 -70 24 -13 27 -50 4 -50 -9 0 -18 -9 -21 -20 -3 -10 -13
-22 -23 -25 -36 -11 -28 -134 8 -135 4 0 20 -18 36 -40 22 -29 37 -40 56 -40
46 0 69 -43 30 -55 -11 -3 -20 -13 -20 -21 0 -8 -11 -19 -25 -24 -25 -9 -25
-11 -25 -131 0 -112 1 -121 20 -126 11 -3 20 -9 20 -14 0 -5 20 -29 44 -53 24
-24 46 -51 49 -60 4 -10 19 -16 41 -16 43 0 57 -19 28 -38 -14 -9 -22 -25 -22
-43 0 -21 -13 -40 -51 -76 -29 -26 -68 -64 -89 -83 -21 -20 -39 -49 -43 -67
-4 -19 -23 -49 -47 -72 -26 -25 -40 -48 -40 -64 0 -15 -9 -31 -25 -41 -16 -11
-25 -26 -25 -43 0 -15 -7 -35 -16 -44 -13 -15 -17 -42 -17 -139 0 -126 10
-161 35 -121 10 17 23 21 63 21 55 0 68 6 78 33 5 14 18 17 67 17 l60 0 0 -39
c0 -30 5 -41 19 -46 14 -4 21 -17 23 -43 2 -27 9 -40 26 -47 35 -16 27 -35
-16 -35 -26 0 -41 6 -50 20 -7 11 -19 20 -27 20 -8 0 -15 9 -15 20 0 27 -40
27 -47 0 -3 -11 -12 -20 -19 -20 -8 0 -19 -11 -25 -24 -6 -13 -20 -26 -30 -29
-14 -4 -19 -17 -21 -63 -3 -59 -24 -86 -35 -45 -3 11 -14 23 -24 26 -10 4 -19
13 -19 21 0 8 -8 18 -17 21 -28 10 -33 24 -33 101 0 65 -2 73 -17 70 -15 -3
-19 -16 -21 -76 l-3 -73 46 -45 c25 -25 45 -49 45 -54 0 -5 9 -12 20 -15 11
-3 20 -13 20 -20 0 -28 22 -26 55 7 29 27 35 40 35 75 0 50 8 73 25 73 7 0 20
10 28 23 l16 22 16 -22 c9 -13 22 -23 30 -23 7 0 16 -9 20 -19 11 -37 85 -37
85 0 0 14 7 19 25 19 29 0 35 27 8 37 -25 9 -33 23 -33 61 0 25 -4 32 -20 32
-17 0 -20 7 -20 41 0 32 -4 42 -20 46 -12 3 -20 14 -20 27 0 12 9 27 20 34 11
7 20 21 20 33 0 11 17 37 38 57 21 20 42 53 48 72 14 49 39 46 40 -5 1 -91 15
-154 35 -160 27 -9 24 -43 -6 -57 l-25 -11 0 -178 0 -178 35 -38 35 -38 -603
-5 c-395 -3 -605 -2 -609 5 -4 6 -8 31 -8 56 0 39 4 49 25 63 22 14 25 24 25
72 0 47 3 57 20 61 19 5 20 14 20 155 0 139 -1 150 -19 155 -11 3 -21 13 -24
24 -3 11 -14 19 -26 19 -15 0 -21 6 -21 21 0 12 -8 23 -19 26 -11 3 -21 13
-24 24 -4 15 -14 19 -45 19 -34 0 -41 3 -44 23 -3 21 -8 22 -106 25 -101 3
-102 2 -112 -22 -7 -19 -17 -25 -47 -28 -27 -2 -39 -8 -41 -20 -3 -15 4 -18
38 -18 33 0 43 4 47 20 5 18 14 20 114 20 100 0 109 -2 109 -19 0 -21 19 -31
55 -31 14 0 29 -9 35 -20 6 -11 17 -20 25 -20 8 0 15 -7 15 -15 0 -8 9 -19 20
-25 19 -10 20 -21 20 -153 0 -131 -2 -143 -20 -155 -16 -9 -20 -23 -20 -60 0
-39 -5 -53 -25 -72 -21 -20 -25 -32 -25 -83 0 -50 3 -60 20 -64 19 -5 20 -14
20 -127 0 -125 3 -138 33 -149 13 -5 17 -18 17 -66 0 -51 3 -61 20 -66 19 -6
20 -15 20 -215 0 -199 -1 -208 -20 -213 -15 -4 -20 -14 -20 -42 0 -28 -5 -38
-20 -42 -11 -3 -20 -9 -20 -13 0 -4 -15 -22 -32 -41 -25 -25 -42 -34 -68 -35
-19 0 -74 -1 -122 -2 -77 -2 -87 -4 -93 -22 -5 -17 -15 -20 -61 -20 -34 0 -53
4 -49 10 3 5 18 10 33 10 14 0 35 9 47 19 74 71 95 94 95 102 0 5 7 9 15 9 9
0 20 11 25 25 5 14 13 25 18 25 13 0 68 53 75 72 4 10 13 18 21 18 21 0 26 23
26 120 0 97 -5 120 -26 120 -8 0 -20 11 -26 25 -6 14 -17 25 -23 25 -7 0 -15
9 -18 20 -5 19 -14 20 -136 20 -105 0 -131 3 -131 14 0 7 9 16 20 19 11 3 20
12 20 21 0 9 8 16 20 16 11 0 20 4 20 9 0 6 11 22 25 37 23 25 25 35 25 119 0
90 -1 92 -34 128 -18 20 -39 37 -45 37 -6 0 -11 6 -11 14 0 8 -5 18 -12 22 -7
4 -117 7 -245 5 l-232 -2 -31 -29 c-16 -15 -30 -33 -30 -38 0 -6 -9 -13 -19
-17 -11 -3 -23 -14 -26 -24 -3 -11 -15 -21 -25 -24 -18 -5 -20 -14 -20 -87 0
-78 1 -82 34 -115 18 -19 38 -35 45 -35 6 0 11 -9 11 -20 0 -11 6 -20 13 -20
8 0 22 -9 32 -20 16 -18 33 -20 229 -22 180 -3 211 -5 211 -18 0 -11 -14 -15
-55 -17 -43 -1 -58 -6 -69 -22 -9 -14 -24 -21 -47 -21 -23 0 -37 -6 -44 -20
-10 -20 -21 -20 -488 -20 -465 0 -478 1 -495 20 -13 16 -29 20 -72 20 -42 0
-55 3 -55 15 0 8 6 15 14 15 7 0 21 10 30 22 l16 23 16 -23 c16 -21 22 -22
166 -22 141 0 150 1 155 20 4 15 14 20 37 20 22 0 42 11 69 36 20 19 37 39 37
44 0 5 9 12 20 15 11 3 20 11 20 17 0 6 11 21 25 34 22 20 25 32 25 88 l0 65
-58 60 c-43 45 -65 61 -85 61 -16 0 -30 8 -37 20 -10 19 -21 20 -174 20 -90 0
-178 3 -195 6 -42 9 -41 34 2 34 24 0 44 11 83 48 28 26 54 55 57 65 5 13 18
17 61 17 44 0 59 4 76 22 21 23 22 23 386 26 348 3 364 4 374 23 6 10 17 19
25 19 12 0 15 15 15 69 0 60 2 69 20 74 15 4 20 14 20 39 0 39 -6 49 -26 41
-8 -3 -14 -20 -14 -42 0 -28 -5 -38 -22 -46 -20 -9 -23 -19 -26 -72 l-3 -63
-212 0 c-152 0 -216 3 -225 12 -7 7 -12 36 -12 65 0 46 -3 53 -20 53 -17 0
-20 -7 -20 -48 0 -26 -5 -53 -12 -60 -8 -8 -52 -12 -131 -12 -110 0 -119 -1
-124 -20 -4 -16 -14 -20 -44 -20 l-39 0 0 60 0 59 108 3 c101 3 107 4 110 25
2 14 -3 23 -17 28 -15 4 -21 15 -21 35 0 28 -22 60 -41 60 -5 0 -9 7 -9 15 0
8 -9 19 -20 25 -11 6 -20 17 -20 24 0 20 -23 26 -99 26 -62 0 -70 -2 -104 -34
-20 -18 -37 -39 -37 -45 0 -6 -7 -11 -15 -11 -19 0 -38 -47 -31 -76 3 -12 15
-24 26 -27 15 -4 20 -13 20 -41 0 -30 5 -38 25 -46 14 -5 25 -16 25 -24 0 -9
9 -20 20 -26 30 -16 25 -57 -11 -91 -17 -16 -35 -26 -40 -23 -5 3 -9 30 -9 59
0 44 -4 56 -20 65 -12 7 -20 21 -20 38 0 32 -9 46 -33 55 -16 6 -17 18 -15
104 3 91 5 99 26 108 12 5 22 14 22 20 0 6 9 19 21 28 23 20 21 40 -4 45 -11
2 -19 -6 -23 -22 -3 -14 -13 -26 -20 -26 -8 0 -19 -11 -24 -25 -5 -14 -16 -25
-24 -25 -19 0 -26 -22 -26 -90 0 -82 9 -117 31 -123 14 -4 19 -14 19 -42 0
-28 5 -38 20 -42 18 -5 20 -14 20 -92 0 -75 -3 -88 -20 -99 -11 -7 -20 -19
-20 -27 0 -8 -6 -15 -14 -15 -7 0 -20 -7 -27 -16 -11 -14 -27 -16 -85 -11 -84
6 -119 21 -109 45 11 26 18 214 11 265 -9 57 -29 87 -48 69 -9 -9 -14 -59 -18
-170 -6 -184 -10 -196 -94 -235 -43 -20 -60 -35 -73 -64 -10 -20 -33 -47 -51
-59 -43 -29 -159 -37 -502 -32 -304 4 -318 7 -355 86 -24 52 -47 54 -72 5 -10
-20 -30 -45 -44 -56 -39 -28 -162 -39 -412 -35 -260 4 -281 9 -316 84 -26 54
-52 58 -69 11 -28 -79 -100 -102 -292 -95 -136 5 -169 19 -200 85 -25 53 -44
54 -67 6 -41 -85 -106 -98 -478 -91 -241 4 -263 10 -300 86 -15 33 -31 46 -70
64 -46 21 -65 23 -217 23 -109 0 -168 4 -168 10 0 6 -20 28 -45 50 -50 44 -55
59 -25 75 26 14 28 78 3 87 -28 10 -33 24 -33 96 0 59 -3 72 -22 88 l-23 20
23 15 c27 20 28 41 2 49 -11 3 -20 12 -20 20 0 8 -9 16 -19 20 -11 3 -23 15
-26 26 -5 15 -16 19 -57 19 -49 0 -52 2 -120 70 l-70 70 -94 0 c-83 0 -94 2
-104 20 -15 28 -75 28 -90 0 -15 -28 -80 -28 -87 -1 -6 24 -19 30 -60 24 -20
-3 -33 -12 -36 -24 -7 -27 -60 -26 -78 1 -12 19 -25 21 -110 22 l-95 2 -57
-56 c-31 -31 -57 -61 -57 -67 0 -6 -6 -11 -14 -11 -7 0 -21 -11 -30 -25 -10
-16 -26 -25 -42 -25 -18 0 -51 -26 -124 -100 -96 -95 -100 -101 -100 -143 0
-34 -5 -48 -25 -65 -36 -32 -35 -99 1 -131 l26 -23 -46 -42 c-25 -24 -46 -48
-46 -54 0 -15 70 -14 -625 -12 -448 1 -602 4 -607 13 -4 7 -8 35 -8 62 0 38
-5 55 -20 68 -17 14 -20 29 -20 105 0 81 -2 91 -25 116 -14 15 -25 37 -25 50
0 12 11 32 25 44 21 19 25 30 25 81 0 93 -2 91 112 91 93 0 101 2 134 28 18
15 34 32 34 38 0 7 9 14 20 17 19 5 21 12 18 113 -3 93 -6 108 -22 118 -10 6
-32 24 -48 40 -22 23 -28 38 -28 74 0 38 -5 49 -37 78 -20 19 -41 34 -45 34
-4 0 -8 15 -8 33 0 27 -9 41 -45 73 -24 21 -45 44 -45 51 0 6 -9 15 -20 18
-26 8 -26 42 0 50 15 5 20 15 20 40 0 26 6 39 25 51 18 12 25 25 25 48 0 20 7
35 20 44 19 12 20 23 20 237 0 214 -1 225 -20 237 -13 9 -20 24 -20 45 0 24
-7 37 -25 49 -25 16 -25 18 -25 161 0 134 -1 145 -19 150 -22 6 -31 31 -31 89
0 33 -4 43 -20 47 -11 3 -20 12 -20 20 0 9 -9 18 -19 22 -11 3 -23 15 -26 26
-4 10 -13 19 -21 19 -8 0 -19 11 -24 25 -8 20 -16 25 -46 25 -27 0 -37 5 -41
20 -4 15 -14 20 -43 20 -30 0 -39 5 -49 26 l-11 26 -182 -4 c-174 -3 -181 -4
-196 -25 -8 -13 -20 -23 -28 -23 -7 0 -18 -9 -24 -20 -9 -17 -21 -20 -74 -20
-55 0 -64 3 -69 20 -5 19 -14 20 -172 20 -158 0 -167 -1 -172 -20 -3 -11 -11
-20 -18 -20 -7 0 -20 -11 -29 -25 -15 -23 -23 -25 -91 -25 -64 0 -76 -3 -85
-20 -9 -17 -21 -20 -83 -20 -69 0 -75 -2 -110 -34 -20 -18 -37 -39 -37 -45 0
-6 -5 -11 -10 -11 -12 0 -80 -66 -80 -77 0 -5 -9 -14 -20 -21 -16 -10 -20 -23
-20 -67 l0 -55 35 0 c24 0 37 6 45 20 10 19 21 20 246 20 l236 0 29 -29 c24
-25 29 -38 29 -79 0 -42 -4 -52 -25 -66 -19 -12 -25 -25 -25 -51 0 -24 -5 -35
-19 -40 -10 -3 -21 -15 -24 -25 -4 -15 -14 -20 -42 -20 -28 0 -38 -5 -42 -20
-5 -19 -14 -20 -154 -20 -139 0 -149 1 -159 21 -9 16 -19 19 -48 17 -36 -3
-37 -4 -34 -37 2 -20 13 -42 25 -52 l22 -18 -27 -26 c-16 -14 -28 -30 -28 -35
0 -6 -14 -10 -31 -10 -23 0 -41 -10 -65 -35 -29 -29 -34 -41 -34 -80 0 -38 4
-48 20 -52 26 -7 26 -44 0 -61 -17 -10 -20 -23 -20 -80 l0 -69 45 -39 c35 -31
45 -46 45 -71 0 -22 6 -33 19 -38 11 -3 23 -15 26 -26 5 -16 16 -19 59 -19 83
0 90 -19 30 -79 -27 -27 -61 -63 -76 -80 -15 -17 -31 -31 -34 -31 -4 0 -17
-11 -30 -25 -13 -14 -33 -25 -45 -25 -28 0 -99 73 -99 102 0 11 -13 33 -30 49
-29 30 -50 31 -50 3 0 -8 -5 -14 -11 -14 -13 0 -69 -58 -69 -71 0 -5 -11 -14
-25 -19 -14 -5 -25 -16 -25 -24 0 -8 -9 -18 -20 -21 -18 -6 -20 -15 -20 -105
0 -94 1 -99 29 -129 16 -17 34 -31 40 -31 6 0 11 -14 11 -30 0 -24 13 -43 57
-88 l58 -57 134 0 c127 0 134 1 149 23 8 12 19 22 24 22 6 0 28 18 49 40 22
22 43 40 48 40 6 0 17 10 25 22 9 12 18 19 21 16 11 -11 23 -246 24 -487 l2
-243 30 -30 c16 -17 28 -32 26 -34 -2 -2 -193 -5 -425 -6 l-422 -3 0 -475 c0
-357 3 -479 12 -488 20 -20 101 -15 120 8 15 17 27 19 105 15 65 -3 94 -9 113
-23 40 -30 118 -44 155 -27 51 23 69 25 95 12 18 -10 60 -13 140 -11 66 2 129
-2 147 -8 28 -10 36 -9 70 15 22 15 53 27 70 27 24 0 37 8 53 30 29 41 61 39
94 -4 29 -39 60 -53 80 -37 8 7 23 7 46 1 29 -8 38 -6 59 13 14 12 28 25 31
28 24 28 131 40 170 19 14 -8 30 -5 65 12 39 19 49 20 66 10 17 -11 25 -11 44
2 33 22 49 20 83 -9 27 -22 39 -25 111 -25 45 0 90 5 100 12 15 9 31 9 74 -2
36 -8 89 -11 154 -8 110 6 134 0 179 -43 31 -30 32 -30 63 -14 25 13 59 16
168 14 75 0 147 -6 160 -12 18 -8 27 -6 43 8 14 13 28 16 52 11 18 -4 50 -6
71 -6 21 1 51 -7 66 -16 29 -17 30 -17 66 14 42 38 56 39 94 11 27 -20 29 -20
63 -3 35 16 37 16 70 -7 18 -13 35 -26 38 -29 13 -17 69 -37 81 -29 8 5 25 9
40 9 14 0 30 5 36 11 8 8 17 8 33 -1 16 -9 25 -9 33 -1 15 15 47 14 53 -3 3
-7 25 -28 50 -47 42 -31 45 -36 42 -74 -3 -36 -6 -40 -33 -43 -19 -3 -46 -20
-75 -48 -39 -39 -49 -44 -90 -44 -37 0 -51 -5 -68 -25 -12 -14 -26 -25 -32
-25 -5 0 -10 -13 -10 -28 0 -18 -9 -37 -25 -50 -24 -21 -25 -27 -25 -137 l0
-116 51 -50 52 -49 926 -1 926 -1 14 21 c7 12 18 21 23 21 5 0 23 13 39 29 29
29 29 31 29 139 0 124 -4 142 -31 142 -16 0 -19 7 -19 41 0 32 -4 42 -19 46
-11 3 -21 13 -24 24 -4 15 -14 19 -46 19 -34 0 -41 3 -41 19 0 15 -10 22 -42
28 -40 8 -43 11 -46 45 -2 29 1 39 17 48 19 9 21 20 21 89 0 59 -4 82 -15 91
-14 12 -11 15 22 26 21 8 65 14 99 14 33 0 65 5 71 11 17 17 54 3 95 -36 l37
-35 138 0 c105 1 143 4 157 15 25 19 46 19 82 0 45 -23 137 -20 159 6 16 16
26 19 58 14 33 -6 43 -3 67 20 40 38 73 35 116 -9 29 -30 38 -34 54 -26 10 6
22 15 25 20 11 17 43 11 50 -10 16 -50 127 -89 163 -57 13 12 40 15 112 16 52
0 116 3 142 7 36 5 54 3 72 -10 28 -18 62 -21 71 -6 8 13 51 13 73 1 23 -12
172 38 172 57 0 5 12 14 27 21 24 11 29 9 62 -24 20 -19 41 -35 45 -35 5 0 24
-11 42 -25 41 -31 101 -34 134 -5 27 24 72 26 90 5 14 -16 27 -18 183 -17 85
0 113 4 126 16 24 22 58 20 78 -4 26 -29 94 -27 141 5 20 14 40 25 45 25 10 0
54 47 60 63 5 13 117 -41 117 -55 0 -4 12 -8 28 -8 15 0 38 -7 50 -16 19 -13
28 -13 56 -3 27 10 40 10 65 -1 26 -11 36 -10 67 5 27 13 49 16 83 11 25 -4
85 -6 134 -6 73 1 91 -2 113 -19 23 -18 28 -19 72 -5 26 7 51 14 55 14 4 0 17
16 28 35 22 37 48 45 69 20 14 -17 60 -21 60 -5 0 6 7 10 15 10 9 0 15 -9 15
-25 0 -14 9 -33 20 -42 11 -10 20 -28 20 -42 0 -16 16 -39 45 -68 45 -43 56
-68 33 -76 -7 -2 -47 -2 -89 1 -79 5 -119 -6 -119 -33 0 -11 -12 -15 -40 -15
-34 0 -42 -4 -50 -25 -5 -14 -16 -25 -25 -25 -8 0 -15 -4 -15 -9 0 -14 -71
-81 -86 -81 -9 0 -14 -11 -14 -30 0 -19 5 -30 14 -30 8 0 16 -7 20 -15 4 -11
21 -15 61 -15 l55 0 0 -40 c0 -29 4 -40 15 -40 12 0 15 -18 15 -104 0 -109 3
-116 45 -109 19 4 20 10 17 109 -3 91 -6 106 -23 117 -10 6 -19 23 -19 36 0
35 -61 91 -100 91 -20 0 -30 5 -30 15 0 8 5 15 10 15 6 0 15 11 20 25 5 14 16
25 25 25 8 0 15 9 15 20 0 17 7 20 40 20 29 0 42 5 50 20 10 18 21 20 108 20
102 0 114 4 125 33 7 20 27 14 27 -8 0 -7 9 -17 21 -20 30 -10 17 -30 -22 -33
-24 -3 -44 -15 -70 -44 -37 -39 -38 -39 -49 -18 -7 14 -19 20 -33 18 -27 -4
-34 -34 -13 -57 15 -17 14 -21 -24 -59 l-41 -41 3 -77 c3 -81 17 -104 52 -91
13 5 16 21 16 85 0 74 1 79 25 90 14 6 25 18 25 27 0 8 4 15 8 15 14 0 82 65
82 78 0 8 17 12 50 12 l50 0 0 -55 0 -54 -62 -3 c-55 -3 -63 -6 -66 -24 -2
-14 6 -27 22 -38 21 -13 26 -25 26 -56 0 -34 -4 -42 -26 -52 -24 -11 -28 -10
-46 15 -24 33 -54 35 -64 5 -5 -17 0 -27 20 -43 14 -11 26 -26 26 -32 0 -13
23 -23 57 -23 16 0 38 13 59 35 29 28 34 41 34 80 0 39 5 51 35 80 38 39 70
45 80 16 3 -11 15 -23 26 -26 27 -9 23 -59 -6 -63 -48 -7 -65 -13 -65 -24 0
-12 -67 -78 -80 -78 -4 0 -10 -9 -13 -20 -4 -15 -14 -20 -41 -20 -25 0 -38 -6
-46 -20 -10 -19 -8 -20 44 -20 39 0 55 4 60 15 7 19 33 19 43 0 8 -13 107 -15
773 -15 421 0 773 0 783 0 15 0 17 10 17 78 0 66 3 79 20 90 19 11 20 23 20
157 0 134 -1 145 -20 155 -16 9 -20 21 -20 60 0 38 -5 54 -20 67 -11 10 -20
30 -20 46 0 27 12 43 93 129 18 20 52 24 62 8 14 -22 54 -10 81 25 14 19 32
35 39 35 7 0 25 -16 39 -35 21 -27 34 -35 57 -35 17 0 45 -6 62 -14 37 -16 75
-26 132 -33 32 -4 44 0 59 16 27 29 63 26 103 -9 40 -36 45 -36 82 -9 23 17
33 19 49 10 14 -7 29 -8 46 -2 23 9 43 6 111 -19 22 -8 49 3 112 46 31 20 43
23 84 18 35 -5 53 -2 70 10 35 24 61 20 90 -16 24 -29 29 -31 55 -20 16 6 50
13 75 15 25 3 55 11 67 18 19 12 24 10 50 -14 22 -21 31 -24 41 -14 17 17 296
17 333 -1 25 -11 31 -9 74 23 25 19 51 36 57 36 7 1 68 3 137 4 69 2 143 5
165 6 22 1 58 2 80 1 125 -4 138 -3 161 19 19 18 30 21 66 15 50 -8 53 -8 96
0 21 4 38 2 48 -7 12 -10 50 -14 131 -14 l115 0 31 -35 c30 -34 34 -35 104
-36 71 -1 73 -1 98 32 14 19 35 34 45 34 10 0 40 -18 65 -40 40 -35 53 -40 94
-40 26 0 52 -5 59 -12 7 -7 57 -12 137 -13 l125 -2 0 503 0 504 -540 0 -540 0
0 59 c0 58 -15 91 -41 91 -6 0 -9 25 -7 57 3 56 4 58 39 68 47 13 141 111 135
140 -6 24 2 39 25 47 14 6 18 31 24 160 8 180 7 192 -23 196 -18 3 -22 10 -22
40 0 27 -6 41 -21 50 -18 12 -21 20 -15 58 l6 45 -107 104 -107 105 -50 0
c-40 0 -54 4 -64 20 -8 14 -23 20 -47 20 -28 0 -35 4 -35 20 0 11 5 20 10 20
14 0 80 66 80 80 0 5 6 10 13 10 25 0 77 60 77 90 0 19 7 33 20 40 19 10 20
23 22 273 l3 262 195 6 c107 3 196 6 196 7 1 1 4 11 7 22 4 17 14 20 62 20 48
0 58 3 62 20 5 18 14 20 98 20 84 0 93 -2 98 -20 4 -15 14 -20 42 -20 28 0 38
-5 42 -20 3 -11 9 -20 14 -20 5 0 19 -11 31 -25 16 -18 32 -25 59 -25 47 0 69
8 69 25 0 8 9 16 19 20 11 3 23 14 26 24 3 11 15 21 25 24 11 3 20 12 20 20 0
9 9 19 20 22 15 5 20 15 20 41 0 22 6 37 16 41 37 14 36 93 -1 93 -11 0 -15
12 -15 41 0 32 -4 42 -20 46 -11 3 -20 12 -20 19 0 8 -11 19 -25 24 -14 5 -25
16 -25 24 0 8 -9 17 -19 21 -10 3 -21 15 -24 25 -3 11 -12 20 -20 20 -9 0 -19
9 -22 20 -3 11 -13 20 -21 20 -8 0 -18 8 -21 18 -4 9 -11 20 -17 24 -13 9
-348 11 -370 2 -9 -3 -16 -12 -16 -19 0 -17 -23 -25 -77 -25 -36 0 -46 -4 -50
-20 -4 -13 -14 -20 -30 -20 -33 0 -63 -17 -63 -36 0 -14 -13 -16 -86 -13 -77
4 -88 7 -102 27 -11 16 -24 22 -52 22 -29 0 -39 4 -43 20 -4 15 -14 20 -40 20
-71 0 -118 39 -67 55 11 3 20 13 20 21 0 8 11 19 25 24 20 8 25 16 25 44 0 25
6 38 19 46 12 6 22 26 26 49 4 27 12 41 26 44 10 3 19 12 19 20 0 8 9 17 21
20 18 5 20 12 17 64 -2 46 -7 59 -20 61 -10 2 -18 -2 -19 -10z m-11839 -282
c0 -19 16 -29 60 -36 27 -4 36 -11 38 -29 3 -20 8 -22 38 -19 23 3 34 0 34 -9
0 -7 11 -15 25 -19 25 -6 41 -36 30 -54 -3 -5 1 -10 9 -10 18 0 21 -16 6 -25
-5 -3 -10 -19 -10 -34 0 -16 -7 -34 -15 -41 -8 -7 -15 -19 -15 -27 0 -12 -9
-13 -42 -8 -35 6 -41 5 -30 -6 18 -19 15 -29 -8 -29 -15 0 -20 -7 -20 -24 0
-14 -4 -28 -10 -31 -5 -3 -10 -15 -10 -26 0 -34 -18 -11 -25 31 -6 36 -10 40
-32 38 -19 -2 -27 4 -38 29 l-14 32 30 -6 c34 -6 36 0 10 26 -15 15 -28 19
-54 14 -24 -4 -40 0 -55 13 -12 10 -19 21 -16 25 2 4 -11 15 -30 24 -19 9 -37
23 -40 31 -3 9 -11 12 -16 9 -6 -4 -21 0 -34 8 -22 15 -93 33 -109 29 -5 -1
-94 -5 -200 -7 -105 -3 -207 -10 -227 -15 -19 -5 -51 -8 -70 -6 -19 2 -92 4
-162 5 -102 1 -128 4 -128 15 0 10 25 15 108 20 59 3 145 8 191 10 140 8 138
46 -2 46 -44 0 -76 4 -73 9 4 5 78 10 166 10 155 2 160 1 160 -19 0 -11 6 -20
13 -21 6 0 37 -3 67 -5 69 -6 116 -5 149 2 14 4 61 9 103 11 76 5 78 5 89 -21
7 -14 18 -26 26 -26 7 0 13 -9 13 -19 0 -10 9 -29 19 -42 17 -22 21 -22 45 -9
15 7 29 25 33 39 3 14 11 29 17 33 6 4 0 8 -14 8 -30 0 -50 17 -50 42 0 14 -8
18 -40 18 -26 0 -42 5 -48 17 -8 13 -29 17 -98 21 -163 8 -114 22 74 22 152 0
182 -2 182 -14z m10759 -32 c10 -9 -14 -24 -39 -24 -33 0 -49 18 -29 31 12 7
56 3 68 -7z m-89 -49 c0 -8 -7 -15 -15 -15 -16 0 -20 12 -8 23 11 12 23 8 23
-8z m630 4 c0 -12 69 -79 81 -79 4 0 9 -9 12 -20 5 -19 14 -20 199 -20 191 0
193 0 203 -22 7 -17 20 -24 46 -26 27 -2 38 -9 42 -23 5 -17 14 -19 92 -19 78
0 87 2 92 20 4 15 14 20 39 20 25 0 38 7 50 25 14 22 24 25 71 25 46 0 56 3
60 20 5 19 14 20 199 20 183 0 194 -1 204 -20 6 -11 17 -20 25 -20 8 0 15 -5
15 -11 0 -15 65 -79 80 -79 5 0 10 -6 10 -14 0 -7 11 -21 25 -30 17 -11 25
-26 25 -46 0 -19 7 -33 20 -40 14 -8 20 -21 20 -46 0 -27 -5 -37 -20 -41 -16
-4 -20 -14 -20 -43 0 -30 -4 -39 -21 -43 -11 -3 -23 -15 -26 -26 -3 -12 -12
-21 -20 -21 -8 0 -17 -9 -20 -20 -5 -17 -14 -20 -68 -20 -54 0 -63 3 -68 20
-3 11 -11 20 -19 20 -7 0 -18 10 -23 23 -7 16 -20 23 -47 25 -26 2 -39 9 -43
23 -6 17 -16 19 -92 19 -76 0 -85 -2 -90 -20 -4 -17 -14 -20 -57 -20 -56 0
-69 -6 -79 -32 -6 -16 -25 -18 -198 -18 -182 0 -191 1 -196 20 -3 11 -10 20
-17 20 -6 0 -20 3 -32 6 -24 6 -94 -52 -94 -79 0 -25 33 -31 49 -8 7 12 17 21
22 21 5 0 9 -122 9 -271 l0 -272 -25 -23 c-14 -13 -25 -32 -25 -43 0 -12 -9
-26 -20 -33 -11 -7 -20 -18 -20 -25 0 -7 -9 -17 -20 -23 -11 -6 -20 -17 -20
-25 0 -8 -5 -15 -10 -15 -13 0 -80 -66 -80 -79 0 -5 -9 -13 -20 -16 -11 -3
-20 -13 -20 -21 0 -8 -11 -20 -25 -26 -14 -6 -25 -17 -25 -24 0 -8 -17 -16
-40 -20 -25 -4 -45 -14 -51 -25 -7 -15 -21 -19 -59 -19 -38 0 -54 -5 -67 -20
-17 -19 -30 -20 -274 -20 -247 0 -257 1 -262 20 -4 17 -15 20 -108 22 -137 4
-137 22 -1 26 99 3 103 4 112 27 9 23 15 25 71 25 52 0 62 3 66 20 5 17 14 20
64 20 47 0 63 4 76 20 10 11 27 20 40 20 22 0 53 24 53 41 0 5 16 9 36 9 27 0
37 5 41 20 3 11 11 20 19 20 7 0 21 11 30 25 11 17 25 25 45 25 22 0 45 17
102 73 40 39 76 80 80 90 3 9 11 17 17 17 13 0 57 49 65 72 4 11 19 18 43 20
l37 3 8 62 c7 48 13 64 28 68 18 6 19 17 19 155 0 136 -2 150 -19 159 -11 6
-21 26 -25 51 -5 30 -11 40 -25 40 -38 0 -42 -61 -6 -92 24 -21 25 -25 25
-161 0 -129 -1 -139 -19 -144 -14 -3 -22 -17 -26 -44 -4 -23 -14 -43 -26 -49
-10 -6 -19 -17 -19 -25 0 -7 -9 -16 -19 -20 -11 -3 -23 -15 -26 -26 -4 -10
-11 -19 -16 -19 -13 0 -119 -107 -119 -120 0 -6 -7 -10 -15 -10 -8 0 -19 -9
-25 -20 -7 -13 -21 -20 -40 -20 -28 0 -60 -22 -60 -41 0 -5 -7 -9 -15 -9 -9 0
-19 -8 -22 -17 -9 -24 -23 -33 -55 -33 -17 0 -31 -8 -38 -20 -8 -14 -21 -20
-46 -20 -27 0 -37 -5 -41 -20 -4 -17 -14 -20 -57 -20 -56 0 -69 -6 -79 -32 -5
-15 -18 -18 -68 -18 -52 0 -62 -3 -66 -20 -5 -19 -14 -20 -218 -20 -205 0
-214 1 -220 20 -5 17 -15 20 -59 20 -50 0 -55 3 -109 55 l-57 54 0 119 c0 111
1 120 20 125 11 3 20 12 20 21 0 11 10 16 33 16 19 0 36 -2 39 -6 3 -3 -14
-26 -38 -51 -44 -45 -44 -46 -44 -119 0 -70 2 -75 25 -86 14 -6 25 -17 25 -24
0 -7 9 -15 19 -19 11 -3 23 -15 26 -26 6 -17 16 -19 81 -19 67 0 76 -3 96 -25
21 -24 25 -25 164 -25 130 0 144 2 157 19 9 15 28 21 67 24 41 3 58 10 68 26
12 17 25 21 67 21 45 0 55 4 69 25 12 18 25 25 49 25 21 0 36 7 45 20 7 12 23
20 38 20 17 0 40 15 70 45 32 34 51 45 74 45 16 0 30 4 30 10 0 12 63 75 84
83 9 4 16 13 16 21 0 8 9 18 20 21 11 3 20 13 20 22 0 8 9 17 20 20 10 3 22
13 25 24 3 10 15 21 26 24 14 5 19 15 19 40 0 24 7 37 25 49 33 22 36 85 5 93
-11 3 -20 9 -20 13 0 22 -35 40 -75 40 -52 0 -75 -8 -75 -25 0 -15 -22 -25
-55 -25 -14 0 -29 -9 -35 -20 -9 -16 -21 -20 -64 -20 -43 0 -56 -4 -67 -20
-10 -15 -29 -22 -69 -25 -40 -4 -59 -11 -69 -25 -12 -18 -25 -20 -157 -20
-133 0 -144 -1 -154 -20 -10 -19 -21 -20 -329 -20 l-319 0 -31 29 c-27 25 -31
36 -31 80 0 40 3 51 16 51 9 0 18 9 21 21 3 11 16 25 29 30 29 10 31 35 4 49
-45 24 -16 30 148 30 209 0 270 7 277 30 3 10 15 20 25 23 11 3 20 12 20 21 0
9 7 16 15 16 9 0 21 11 27 25 6 14 17 25 24 25 17 0 24 24 24 80 0 32 -5 52
-16 61 -14 12 -19 10 -38 -14 l-22 -27 -274 2 c-215 2 -274 6 -278 16 -2 7 5
16 16 19 11 2 22 13 25 24 4 16 14 19 63 19 49 0 62 4 86 27 15 15 28 35 28
45 0 12 7 18 21 18 12 0 23 8 26 20 3 10 14 22 24 25 10 4 19 13 19 21 0 8 11
19 25 24 14 5 25 16 25 25 0 8 6 15 13 16 6 0 32 2 55 4 29 2 51 11 63 24 18
19 31 21 120 21 90 0 100 -2 97 -17 -2 -13 -16 -20 -43 -23 -32 -4 -40 -9 -40
-25 0 -16 8 -21 43 -23 32 -2 44 1 49 13 11 32 53 64 89 71 24 4 38 13 41 25
5 18 20 19 269 19 188 0 264 -3 264 -11z m-12497 -104 c12 -11 44 -16 130 -17
99 -3 119 -6 144 -24 42 -32 37 -58 -12 -62 -159 -11 -248 -12 -258 -4 -7 5
-28 8 -47 5 -19 -2 -46 -5 -60 -6 -14 -1 -27 -5 -30 -8 -3 -4 -20 -4 -38 -2
-27 4 -32 9 -30 27 2 16 9 21 33 19 17 0 24 1 18 4 -17 6 2 43 21 43 8 0 16 9
19 20 4 16 14 20 50 20 27 0 52 -6 60 -15z m941 -24 c12 -10 15 -23 10 -47 -5
-30 -4 -34 15 -34 12 0 31 -5 44 -12 12 -6 29 -14 37 -18 8 -4 16 -17 18 -29
3 -21 1 -22 -45 -15 -51 7 -73 19 -73 39 0 18 -190 28 -370 20 l-147 -7 -7 27
c-8 30 20 66 65 85 38 16 432 8 453 -9z m-126 -191 c10 -16 23 -20 68 -20 47
0 57 -3 61 -19 3 -13 17 -22 44 -26 l39 -7 0 -64 c0 -52 -3 -64 -16 -64 -9 0
-18 -9 -21 -20 -3 -11 -12 -20 -19 -20 -8 0 -20 -11 -26 -25 -9 -20 -18 -25
-50 -25 -31 0 -38 -3 -38 -20 0 -19 -7 -20 -154 -20 -146 0 -155 1 -161 20 -5
15 -15 20 -45 20 -30 0 -39 4 -43 21 -3 11 -15 23 -26 26 -17 4 -21 13 -21 44
0 22 -4 39 -9 39 -5 0 -17 7 -25 16 -26 25 -18 124 10 124 7 0 18 9 24 20 10
19 21 20 203 20 181 0 193 -1 205 -20z m617 -105 c0 -63 -3 -80 -14 -80 -8 0
-19 15 -23 34 -6 20 -17 35 -29 38 -14 4 -19 14 -19 42 0 47 6 53 50 49 l35
-3 0 -80z m10263 -26 c1 -9 -8 -20 -23 -27 -14 -6 -25 -18 -25 -26 0 -7 -9
-16 -20 -19 -11 -3 -20 -12 -20 -21 0 -14 -16 -16 -109 -16 -61 0 -112 4 -115
8 -7 11 6 27 27 35 11 4 17 17 17 40 0 19 3 37 7 41 4 3 63 5 132 4 105 -3
126 -6 129 -19z m-408 -43 c0 -8 -4 -17 -8 -20 -13 -8 -35 11 -28 23 10 16 36
14 36 -3z m-10370 -183 c-8 -3 -21 -10 -27 -16 -9 -7 -13 -5 -13 7 0 11 8 16
28 15 15 0 21 -3 12 -6z m-343 -79 c3 -8 1 -26 -5 -39 -10 -21 -15 -23 -39
-15 -40 14 -87 -1 -91 -28 l-3 -22 -335 0 c-300 0 -335 2 -341 16 -6 17 34 57
49 48 4 -3 8 2 8 10 0 17 39 33 49 20 10 -15 30 -17 206 -19 94 -1 196 -6 227
-10 43 -5 68 -3 101 10 24 9 50 15 58 14 23 -5 89 11 89 21 0 16 20 11 27 -6z
m873 -14 c-20 -13 -4 -13 21 0 18 10 19 7 19 -67 0 -77 0 -78 -33 -98 -52 -32
-96 -45 -103 -33 -4 6 0 16 9 23 13 9 17 29 17 87 0 75 0 75 25 70 18 -3 25 0
25 12 0 9 8 16 18 16 14 0 15 -2 2 -10z m9934 -228 c-6 -4 -13 -15 -17 -25 -4
-10 -11 -16 -16 -13 -14 9 -1 44 18 49 20 4 29 -2 15 -11z m-10094 -42 c0 -5
3 -9 8 -8 12 3 72 -13 72 -20 0 -15 -44 -50 -56 -45 -8 3 -14 0 -14 -6 0 -6
-13 -11 -30 -11 -21 0 -30 5 -30 16 0 8 -4 13 -8 10 -4 -2 -14 -1 -20 3 -20
12 2 59 30 64 41 8 48 7 48 -3z m29 -449 c17 -16 31 -34 31 -39 0 -6 9 -14 20
-17 11 -3 20 -15 20 -25 0 -14 -9 -20 -37 -22 l-38 -3 -3 -108 c-3 -102 -1
-109 18 -114 27 -7 25 -19 -5 -39 -14 -9 -25 -23 -25 -30 0 -12 -30 -14 -172
-12 l-173 3 -3 214 c-1 123 2 217 7 220 5 3 81 5 169 3 l161 -3 30 -28z m-434
3 c0 -17 -9 -19 -85 -20 -107 0 -110 -1 -110 -19 0 -10 10 -15 28 -15 18 0 41
-12 65 -34 34 -31 37 -38 37 -88 0 -42 -5 -59 -20 -73 -11 -10 -20 -26 -20
-37 0 -10 9 -27 20 -38 11 -11 20 -28 20 -37 0 -27 12 -41 42 -48 34 -9 55
-32 41 -46 -6 -6 -35 -12 -64 -15 -39 -3 -58 -10 -68 -24 -13 -19 -26 -20
-216 -20 -206 0 -235 3 -235 24 0 6 -10 16 -22 21 -21 9 -23 17 -26 115 l-3
106 46 38 c25 21 45 47 45 57 0 28 11 49 26 49 8 0 14 4 14 10 0 5 14 23 30
40 17 17 30 34 30 39 0 12 48 30 90 33 19 2 103 2 185 2 139 -2 150 -3 150
-20z m-1081 -249 c10 -11 13 -26 9 -53 -10 -65 -42 -81 -80 -39 -35 37 -37 61
-7 96 27 32 42 32 78 -4z m12037 -81 c18 -22 0 -48 -37 -52 -45 -5 -54 -22
-12 -22 39 0 62 -19 56 -47 -2 -13 -15 -19 -48 -23 -44 -5 -45 -6 -50 -45 -4
-28 -10 -41 -24 -43 -31 -6 -38 12 -43 112 -6 127 0 136 81 136 46 0 67 -4 77
-16z m177 -44 c3 -8 15 -24 27 -35 20 -18 21 -27 17 -107 -3 -66 -8 -88 -19
-92 -23 -9 -41 11 -45 47 -3 28 -7 32 -33 32 -25 0 -30 -4 -31 -26 -2 -58 -26
-75 -59 -43 -12 13 -15 33 -13 97 3 70 6 82 25 95 13 8 23 20 23 27 0 27 98
31 108 5z m642 5 c0 -20 -32 -36 -50 -25 -8 5 -12 10 -10 12 48 31 60 33 60
13z m-459 -56 l11 -21 14 21 c11 15 26 21 55 21 50 0 58 -18 57 -126 0 -92
-10 -124 -38 -124 -27 0 -40 35 -41 113 -1 34 -3 55 -6 46 -6 -24 -44 -31 -70
-14 -22 15 -22 15 -25 -57 -3 -74 -17 -98 -52 -85 -13 5 -16 24 -16 120 0 63
3 117 7 120 3 4 26 7 49 7 34 0 46 -5 55 -21z m-10681 -104 c0 -8 -7 -15 -15
-15 -16 0 -20 12 -8 23 11 12 23 8 23 -8z m11560 -217 c0 -7 12 -22 26 -33 24
-19 26 -25 17 -51 -5 -16 -13 -28 -16 -26 -4 1 -19 2 -33 2 -17 0 -28 6 -31
19 -3 11 -13 21 -24 24 -13 4 -19 14 -19 34 0 16 3 33 7 36 12 12 73 8 73 -5z
m-4343 -100 c-3 -8 -6 -5 -6 6 -1 11 2 17 5 13 3 -3 4 -12 1 -19z m3313 -222
c0 -8 8 -17 19 -21 15 -4 19 -20 25 -97 3 -50 6 -117 6 -150 l0 -58 -87 0
c-105 0 -130 -6 -138 -32 -6 -16 -15 -19 -63 -16 l-57 3 -3 104 -3 104 -39 39
c-44 42 -47 48 -25 48 8 0 17 11 21 25 3 14 12 25 19 25 6 0 20 9 30 20 16 18
31 20 157 20 113 0 138 -3 138 -14z m985 -109 c0 -102 -2 -120 -17 -128 -12
-7 -18 -22 -18 -44 0 -46 -25 -59 -98 -51 -60 7 -74 2 -85 -26 -5 -14 -18 -18
-60 -18 -29 0 -58 5 -65 12 -7 7 -12 41 -12 85 0 61 -3 74 -19 83 -18 9 -19
18 -14 82 5 59 11 78 32 100 l26 27 165 -2 165 -2 0 -118z m-12491 47 c9 -24
8 -31 -10 -48 -14 -15 -14 -16 5 -16 40 0 51 -26 51 -116 0 -73 -2 -84 -17
-85 -10 0 -57 0 -105 1 -85 1 -88 0 -100 -24 -10 -23 -17 -26 -63 -26 -28 0
-56 5 -63 12 -15 15 -16 181 -2 209 6 10 18 19 27 19 17 0 63 44 63 61 0 16
108 11 117 -6 7 -13 14 -11 43 10 42 29 46 30 54 9z m779 -21 c-13 -2 -23 -9
-23 -14 0 -12 -47 -12 -55 0 -5 9 33 17 80 18 16 0 15 -1 -2 -4z m105 0 c-10
-2 -26 -2 -35 0 -10 3 -2 5 17 5 19 0 27 -2 18 -5z m102 -118 c0 -25 -5 -35
-20 -40 -13 -4 -20 -15 -20 -30 0 -51 -7 -55 -91 -55 -75 0 -80 -1 -91 -25
-10 -22 -17 -25 -69 -25 -67 0 -69 3 -69 100 0 59 -3 71 -20 80 -26 14 -25 36
2 51 12 7 93 14 187 18 l166 6 13 -24 c6 -13 12 -38 12 -56z m7453 5 c4 -16
14 -20 46 -20 35 0 41 -3 41 -21 0 -12 8 -23 20 -26 18 -5 20 -14 20 -89 0
-69 -3 -84 -15 -84 -9 0 -20 -11 -25 -25 -5 -14 -16 -25 -24 -25 -8 0 -17 -9
-21 -19 -4 -14 -17 -21 -43 -23 -27 -2 -40 -9 -47 -25 -9 -22 -14 -23 -158
-23 l-147 0 -10 25 c-8 21 -16 25 -49 25 -30 0 -40 4 -44 20 -3 11 -12 20 -21
20 -14 0 -16 18 -16 131 0 122 1 131 20 136 11 3 20 14 20 24 0 18 11 19 224
19 215 0 224 -1 229 -20z m937 5 c0 -9 8 -19 18 -22 28 -11 32 -24 32 -121 0
-90 -1 -93 -25 -102 -14 -5 -25 -14 -25 -21 0 -6 -13 -24 -29 -40 l-29 -29
-215 0 c-206 0 -215 1 -220 20 -3 11 -12 20 -20 20 -9 0 -19 9 -22 20 -3 11
-15 25 -26 30 -16 9 -19 22 -19 90 0 62 3 80 14 80 7 0 21 11 30 25 9 14 23
25 30 25 8 0 16 9 19 20 5 19 14 20 246 20 210 0 241 -2 241 -15z m-6612 -141
c29 -19 28 -30 -7 -65 -29 -28 -32 -29 -136 -29 -105 0 -107 1 -136 30 -23 22
-28 35 -23 54 l6 25 137 0 c100 -1 142 -4 159 -15z m820 -8 c18 -11 14 -34 -7
-41 -11 -3 -23 -15 -26 -26 -6 -18 -17 -19 -187 -19 l-180 0 -29 31 c-28 30
-28 33 -13 50 14 16 35 17 223 15 114 -1 213 -6 219 -10z m-2603 -146 c0 -13
-26 -15 -165 -18 -90 -1 -170 0 -177 2 -7 3 -10 12 -7 21 9 23 349 18 349 -5z
m11513 -2 c3 -17 -10 -18 -171 -18 -95 0 -176 3 -180 6 -3 3 -3 12 0 20 4 12
36 14 177 12 153 -3 171 -5 174 -20z m-12489 -107 c17 -19 31 -43 31 -53 0
-17 -14 -18 -222 -18 -186 0 -227 3 -260 17 -21 9 -38 20 -38 25 0 4 -10 17
-22 28 -39 36 -10 41 244 38 l237 -3 30 -34z m11494 0 c15 -16 27 -34 27 -39
0 -11 -79 -17 -302 -20 -98 -2 -148 1 -148 8 0 5 -5 10 -11 10 -10 0 -69 57
-69 66 0 2 107 4 238 4 l237 0 28 -29z m-8900 -52 c7 -8 21 -21 32 -28 17 -10
14 -11 -20 -6 -87 15 -119 12 -130 -12 -5 -13 -13 -23 -17 -23 -9 0 -11 74 -3
82 3 3 33 5 66 4 42 -1 64 -6 72 -17z m840 4 c-13 -2 -35 -2 -50 0 -16 2 -5 4
22 4 28 0 40 -2 28 -4z m6147 -8 c0 -8 -3 -15 -7 -16 -5 0 -55 -3 -112 -5 -80
-4 -109 -9 -127 -23 -31 -24 -117 -24 -122 2 -3 15 5 17 58 17 53 0 63 3 67
20 5 19 14 20 124 20 99 0 119 -3 119 -15z m-1470 -90 l10 -25 495 0 c414 0
495 2 495 14 0 26 27 39 66 29 35 -8 36 -9 20 -26 -10 -9 -32 -17 -51 -17 -24
0 -34 -5 -38 -19 -3 -15 1 -21 17 -23 59 -10 -219 -18 -532 -15 -289 3 -356 7
-363 18 -6 11 -11 11 -21 1 -14 -14 -102 -17 -93 -2 4 6 -5 10 -19 10 -16 0
-26 6 -26 15 0 12 -13 15 -56 15 -36 0 -61 -5 -70 -15 -22 -21 -29 -19 -31 13
-4 50 0 52 97 52 87 0 91 -1 100 -25z m-8030 -15 c0 -11 -6 -20 -14 -20 -18 0
-29 16 -21 30 11 18 35 11 35 -10z m11065 0 c0 -8 -8 -16 -17 -18 -13 -2 -18
3 -18 18 0 15 5 20 18 18 9 -2 17 -10 17 -18z m445 0 c0 -21 -24 -28 -35 -10
-8 14 3 30 21 30 8 0 14 -9 14 -20z m-11705 0 c-3 -5 -21 -10 -40 -10 -19 0
-37 5 -40 10 -4 6 12 10 40 10 28 0 44 -4 40 -10z m935 0 c0 -5 -15 -10 -34
-10 -19 0 -38 5 -41 10 -4 6 10 10 34 10 23 0 41 -4 41 -10z m10570 0 c0 -5
-15 -10 -34 -10 -19 0 -38 5 -41 10 -4 6 10 10 34 10 23 0 41 -4 41 -10z
m-11713 -36 c8 -21 -13 -42 -28 -27 -13 13 -5 43 11 43 6 0 13 -7 17 -16z
m311 -7 c2 -12 -3 -17 -17 -17 -12 0 -21 6 -21 13 0 31 32 34 38 4z m589 7 c8
-22 -18 -37 -36 -20 -7 8 -10 19 -7 25 10 16 36 13 43 -5z m440 0 c9 -23 -11
-38 -26 -20 -13 16 -7 36 10 36 5 0 12 -7 16 -16z m11113 -4 c0 -13 -7 -20
-20 -20 -19 0 -27 20 -13 33 13 14 33 6 33 -13z m403 6 c7 -18 -1 -26 -25 -26
-18 0 -25 20 -11 33 11 12 31 8 36 -7z m-4593 -20 c0 -3 -4 -8 -10 -11 -5 -3
-10 -1 -10 4 0 6 5 11 10 11 6 0 10 -2 10 -4z m-4872 -108 c-2 -14 -13 -25
-28 -29 -40 -11 -230 -10 -230 1 0 6 25 10 55 10 44 0 57 4 67 20 11 17 24 20
76 20 60 0 63 -1 60 -22z m-598 -38 c0 -5 -4 -10 -10 -10 -5 0 -10 5 -10 10 0
6 5 10 10 10 6 0 10 -4 10 -10z m5670 -50 c0 -5 -4 -10 -10 -10 -5 0 -10 5
-10 10 0 6 5 10 10 10 6 0 10 -4 10 -10z m1213 -21 c-42 -71 -83 -99 -144 -99
-46 0 -50 2 -47 22 3 19 10 21 63 22 52 1 61 4 70 23 5 12 17 24 27 26 10 3
18 12 18 21 0 9 7 16 16 16 13 0 13 -4 -3 -31z m-6270 -16 c-51 -2 -136 -2
-190 0 -54 1 -12 3 92 3 105 0 149 -2 98 -3z m5157 -12 c0 -15 -6 -19 -30 -17
-16 1 -32 5 -36 8 -12 13 8 28 37 28 22 0 29 -5 29 -19z m83 -51 c4 -14 0 -20
-12 -20 -10 0 -26 9 -36 20 -18 20 -17 20 12 20 22 0 32 -6 36 -20z m772 -30
c-11 -5 -64 -9 -117 -9 -72 -1 -105 -5 -128 -18 -19 -11 -34 -14 -36 -8 -2 6
-39 9 -87 8 -45 -1 -148 0 -229 4 -115 4 -148 9 -148 19 0 12 66 14 383 13
222 0 374 -4 362 -9z m-995 -30 c22 0 38 -8 52 -25 14 -18 29 -25 54 -25 22 0
34 -5 34 -14 0 -19 22 -26 81 -26 27 0 49 -4 49 -9 0 -5 7 -17 17 -26 14 -14
39 -16 182 -15 91 1 174 2 184 1 26 -2 22 -51 -7 -78 -23 -22 -31 -23 -205
-23 -170 0 -181 1 -191 20 -9 17 -21 20 -70 20 -35 0 -60 4 -60 10 0 14 -155
170 -169 170 -6 0 -11 12 -11 28 1 24 2 25 14 10 8 -11 26 -18 46 -18z m997
-59 c7 -26 41 -31 214 -31 l149 0 10 25 c9 24 13 25 101 25 87 0 92 -1 120
-29 25 -26 29 -37 29 -86 0 -47 3 -58 19 -62 24 -6 31 -47 31 -186 0 -105 -1
-108 -24 -117 -22 -8 -25 -16 -28 -67 -3 -55 -4 -58 -31 -61 -22 -3 -30 1 -34
17 -3 11 -14 23 -24 26 -14 5 -19 16 -19 40 0 25 -6 38 -21 46 l-21 11 21 19
c12 11 21 25 21 32 0 34 -22 37 -281 37 -248 0 -257 1 -262 20 -4 16 -14 20
-52 20 -39 0 -48 -4 -52 -20 -8 -28 -54 -39 -67 -15 -6 10 -19 25 -28 34 -15
13 -18 34 -18 148 0 100 3 134 14 140 7 4 18 18 25 31 11 20 18 22 107 22 86
0 96 -2 101 -19z m-305 -335 c9 -4 24 -19 33 -32 8 -13 22 -24 30 -24 7 0 17
-9 20 -20 6 -19 15 -20 144 -20 76 0 152 -3 168 -6 l29 -6 -27 -29 -27 -29
-306 0 -307 0 -54 57 c-46 47 -54 60 -49 82 8 32 14 38 38 43 32 5 290 -7 308
-16z"/>
<path d="M1630 4390 c0 -5 5 -10 10 -10 6 0 10 5 10 10 0 6 -4 10 -10 10 -5 0
-10 -4 -10 -10z"/>
<path d="M2195 4200 c3 -5 8 -10 11 -10 2 0 4 5 4 10 0 6 -5 10 -11 10 -5 0
-7 -4 -4 -10z"/>
<path d="M13273 4061 c-5 -21 -10 -21 -333 -21 -369 0 -340 7 -340 -81 0 -43
3 -51 24 -60 13 -6 27 -20 29 -30 3 -11 12 -19 20 -19 8 0 17 -8 19 -18 7 -27
52 -32 276 -32 193 0 232 6 232 35 0 8 7 15 16 15 9 0 18 9 21 20 3 10 14 22
24 25 10 4 19 12 19 20 0 7 11 20 25 29 24 16 26 22 23 74 -3 51 -5 57 -26 60
-17 3 -25 -2 -29 -17z m-535 -113 c2 -25 10 -41 23 -48 34 -19 23 -40 -21 -40
-28 0 -40 4 -40 15 0 8 -9 19 -20 25 -14 7 -20 21 -20 45 0 36 11 45 50 42 21
-2 25 -8 28 -39z m540 21 c2 -10 -5 -19 -18 -22 -11 -3 -20 -12 -20 -21 0 -9
-11 -21 -25 -26 -14 -5 -25 -16 -25 -25 0 -12 -18 -15 -109 -15 -61 0 -112 4
-115 8 -7 11 6 27 27 35 11 4 17 17 17 40 0 19 3 37 7 41 4 3 63 5 132 4 107
-3 126 -5 129 -19z m-408 -44 c0 -8 -6 -15 -14 -15 -17 0 -28 14 -19 24 12 12
33 6 33 -9z"/>
<path d="M1353 4045 c-28 -30 -33 -42 -33 -86 0 -42 3 -52 20 -56 10 -3 22
-14 25 -24 6 -17 17 -19 90 -19 73 0 84 2 90 19 3 10 15 21 25 24 17 4 20 14
20 56 0 46 -4 56 -35 86 -32 33 -38 35 -102 35 -64 0 -70 -2 -100 -35z m140
-29 c7 -16 -1 -26 -20 -26 -7 0 -13 9 -13 20 0 23 25 27 33 6z"/>
<path d="M1860 2850 c0 -20 5 -21 82 -18 70 3 83 6 86 21 3 15 -6 17 -82 17
-80 0 -86 -1 -86 -20z"/>
<path d="M1823 2814 c-12 -31 -9 -142 5 -155 23 -24 33 5 30 86 -2 52 -7 80
-15 83 -7 2 -16 -4 -20 -14z"/>
<path d="M1957 2774 c-4 -4 2 -17 14 -30 14 -15 19 -32 17 -55 l-3 -34 -63 -3
c-53 -3 -63 -6 -60 -20 3 -14 17 -18 85 -20 96 -3 96 -2 91 103 l-3 60 -35 3
c-20 2 -39 0 -43 -4z"/>
<path d="M1393 2893 c-24 -5 -30 -18 -13 -28 12 -7 50 12 50 25 0 6 -3 9 -7 9
-5 -1 -18 -4 -30 -6z"/>
<path d="M1432 2821 c-16 -9 -19 -98 -4 -113 5 -5 40 -8 78 -6 l69 3 0 55 c1
30 -4 58 -10 62 -14 10 -117 10 -133 -1z m118 -62 c0 -26 -28 -36 -46 -17 -14
13 -14 17 1 31 19 20 45 12 45 -14z"/>
<path d="M1240 2770 c0 -58 14 -69 74 -60 l39 5 2 53 2 52 -59 0 -58 0 0 -50z
m88 -12 c4 -19 -35 -35 -50 -20 -6 6 -8 18 -4 27 8 21 50 16 54 -7z"/>
<path d="M1154 2676 c-3 -7 -4 -33 -2 -57 l3 -44 175 -6 c96 -3 176 -6 178 -7
1 -1 2 -11 2 -22 0 -33 -32 -40 -194 -40 -100 0 -156 -4 -156 -10 0 -7 71 -9
208 -8 l207 3 3 48 c3 41 -1 51 -27 77 l-29 30 -141 0 -141 0 -10 25 c-7 19
-17 25 -40 25 -17 0 -33 -6 -36 -14z"/>
<path d="M12765 2501 c-8 -14 10 -22 30 -15 13 5 14 8 3 15 -17 11 -26 11 -33
0z"/>
<path d="M9533 1630 c-3 -10 -14 -22 -24 -25 -17 -6 -19 -17 -19 -90 0 -73 2
-84 19 -90 10 -3 21 -15 24 -25 5 -18 14 -20 110 -20 96 0 106 2 112 19 3 11
15 23 26 26 17 6 19 16 19 85 0 68 -3 81 -19 90 -11 5 -23 19 -26 30 -6 18
-15 20 -112 20 -96 0 -105 -2 -110 -20z m43 -81 c9 -15 -11 -33 -30 -26 -9 4
-13 13 -10 22 7 17 30 20 40 4z m129 -10 c0 -7 -8 -15 -17 -17 -18 -3 -25 18
-11 32 10 10 28 1 28 -15z m-45 -49 c0 -11 -4 -20 -9 -20 -13 0 -32 26 -24 33
13 14 33 6 33 -13z m40 -39 c0 -6 -4 -13 -10 -16 -5 -3 -10 1 -10 9 0 9 5 16
10 16 6 0 10 -4 10 -9z"/>
<path d="M10390 1635 c-15 -18 -5 -35 21 -35 21 0 26 -24 7 -36 -6 -4 -19 2
-29 14 -9 12 -24 22 -33 22 -13 0 -16 -14 -16 -84 0 -74 2 -85 19 -91 10 -3
21 -15 24 -25 5 -18 14 -20 110 -20 96 0 106 2 112 19 3 11 15 23 26 26 17 6
19 16 19 90 0 74 -2 84 -19 90 -11 3 -23 15 -26 26 -6 17 -16 19 -104 19 -74
0 -102 -4 -111 -15z m168 -98 c2 -12 -3 -17 -17 -17 -12 0 -21 6 -21 13 0 31
32 34 38 4z m-93 -88 c0 -7 -8 -15 -17 -17 -18 -3 -25 18 -11 32 10 10 28 1
28 -15z"/>
<path d="M3266 4091 c-16 -17 -17 -63 -14 -591 3 -558 3 -572 23 -586 16 -12
51 -15 182 -12 89 2 165 7 170 11 4 5 10 95 13 200 l5 192 186 5 c216 6 222 8
233 90 l7 50 44 0 c25 0 50 6 59 15 22 22 28 102 25 297 -5 203 -7 208 -79
208 l-48 0 -7 51 c-13 93 8 89 -413 89 -349 0 -370 -1 -386 -19z m742 -108 c3
-69 8 -73 77 -69 22 1 46 -2 53 -7 14 -11 16 -144 6 -295 l-7 -92 -58 0 c-35
0 -61 -5 -66 -12 -4 -7 -10 -38 -13 -68 l-5 -55 -200 -5 -200 -5 -6 -175 c-4
-96 -7 -190 -8 -207 l-1 -33 -129 0 -128 0 -7 77 c-3 42 -6 287 -6 545 l0 468
348 -2 347 -3 3 -62z"/>
<path d="M3597 3794 c-4 -4 -7 -40 -7 -81 l0 -73 135 0 136 0 -3 78 -3 77
-126 3 c-69 1 -128 -1 -132 -4z m211 -81 c-3 -15 -16 -19 -77 -21 -41 -2 -78
1 -84 7 -21 21 7 31 84 31 71 0 80 -2 77 -17z"/>
<path d="M4250 4090 c-20 -20 -21 -29 -18 -591 3 -552 4 -571 22 -585 15 -11
57 -14 177 -14 133 0 159 2 170 17 21 24 21 1152 0 1176 -11 15 -37 17 -172
17 -146 0 -161 -2 -179 -20z m317 -56 c3 -9 2 -64 -3 -122 l-9 -107 -131 -3
-132 -3 -7 115 c-4 63 -4 119 -1 125 5 7 55 11 142 11 114 0 136 -2 141 -16z
m-3 -270 c8 -21 8 -597 0 -712 l-7 -92 -132 0 -132 0 -7 92 c-8 120 -8 713 1
721 3 4 66 7 139 7 111 0 133 -2 138 -16z"/>
<path d="M6631 4093 l-22 -18 3 -573 c3 -555 4 -574 22 -588 28 -20 314 -20
342 0 18 14 19 32 19 591 0 559 -1 577 -19 591 -15 11 -56 14 -172 14 -130 0
-155 -3 -173 -17z m319 -505 c0 -255 -3 -500 -7 -545 l-6 -83 -132 0 -132 0
-7 92 c-8 120 -8 983 1 991 3 4 69 7 145 7 l138 0 0 -462z"/>
<path d="M7606 4088 c-14 -20 -16 -92 -16 -588 1 -461 3 -568 14 -583 13 -17
38 -18 388 -15 294 2 378 6 391 16 9 8 17 33 19 60 l3 47 54 7 c29 3 58 11 65
18 8 8 12 138 14 454 3 502 12 454 -83 465 l-50 6 -3 52 c-5 86 10 83 -414 83
l-367 0 -15 -22z m742 -105 c3 -69 3 -69 85 -63 52 3 57 -10 56 -154 -1 -72
-4 -156 -7 -186 l-7 -55 -57 -3 c-73 -4 -76 -22 -5 -22 29 0 58 -5 65 -12 13
-13 15 -214 3 -323 l-6 -60 -55 -3 c-30 -2 -59 -8 -65 -13 -5 -5 -12 -36 -15
-67 l-5 -57 -341 -3 -341 -2 -6 91 c-9 122 -9 984 0 992 4 4 162 6 352 5 l346
-3 3 -62z"/>
<path d="M7937 3794 c-4 -4 -7 -40 -7 -80 0 -86 -10 -81 163 -76 l108 3 -3 77
-3 77 -126 3 c-69 1 -128 -1 -132 -4z m208 -84 c0 -12 -16 -15 -80 -15 -69 0
-80 2 -83 18 -3 16 4 18 80 15 66 -2 83 -6 83 -18z"/>
<path d="M7937 3374 c-4 -4 -7 -40 -7 -81 l0 -73 135 0 136 0 -3 78 -3 77
-126 3 c-69 1 -128 -1 -132 -4z m208 -84 c0 -12 -16 -15 -80 -15 -69 0 -80 2
-83 18 -3 16 4 18 80 15 66 -2 83 -6 83 -18z"/>
<path d="M633 4043 c-26 -29 -33 -46 -33 -78 0 -45 7 -58 33 -68 9 -3 17 -13
17 -22 0 -12 15 -15 84 -15 74 0 85 2 91 19 3 10 15 21 25 24 17 4 20 14 20
65 0 51 -3 62 -19 67 -11 3 -23 15 -26 26 -6 17 -16 19 -83 19 -76 -1 -77 -1
-109 -37z m142 -31 c0 -18 -20 -15 -23 4 -3 10 1 15 10 12 7 -3 13 -10 13 -16z"/>
<path d="M476 4054 c-10 -26 -7 -154 4 -175 22 -40 30 -17 30 86 0 83 -3 105
-14 105 -8 0 -17 -7 -20 -16z"/>
<path d="M11900 3931 c0 -12 6 -21 16 -21 9 0 14 7 12 17 -5 25 -28 28 -28 4z"/>
<path d="M525 3850 c-8 -13 3 -30 21 -30 18 0 18 14 0 29 -10 8 -16 9 -21 1z"/>
<path d="M4674 3816 c-17 -13 -19 -29 -22 -163 -4 -179 2 -192 86 -201 l52 -5
0 -88 0 -88 -57 -3 c-78 -4 -83 -15 -83 -190 0 -186 -9 -178 193 -178 185 0
197 5 197 81 l0 49 80 0 c87 0 85 2 92 -75 5 -47 33 -55 205 -55 125 0 154 3
167 16 13 13 16 43 16 168 0 177 -3 183 -85 188 l-50 3 0 85 0 85 30 3 c103 9
105 12 105 196 0 135 -2 155 -18 169 -16 14 -43 17 -175 17 -144 0 -159 -2
-177 -20 -13 -13 -20 -33 -20 -57 0 -60 -7 -64 -91 -61 l-74 3 -5 54 c-8 78
-15 81 -195 81 -115 0 -156 -3 -171 -14z m304 -48 c7 -7 12 -38 12 -70 l0 -58
135 0 135 0 0 51 c0 87 3 89 140 89 65 0 125 -3 134 -6 18 -7 20 -51 10 -177
l-7 -77 -59 0 c-54 0 -59 -2 -68 -26 -6 -14 -10 -45 -10 -70 l0 -44 -60 0
c-33 0 -60 -4 -60 -10 0 -10 56 -23 86 -20 42 5 44 1 44 -65 l0 -65 54 0 c30
0 61 -3 70 -6 18 -7 20 -50 10 -178 l-7 -77 -131 3 -131 3 -3 45 c-5 96 4 90
-142 90 -149 0 -150 -1 -150 -90 l0 -51 -132 3 -133 3 -9 114 c-11 134 -7 141
81 141 l53 0 0 59 c0 33 4 62 8 65 5 3 31 6 60 7 96 5 94 26 -3 31 l-50 3 -3
57 c-2 31 -8 61 -15 67 -7 5 -37 11 -67 13 l-55 3 -9 114 c-8 105 -8 115 9
128 25 17 245 19 263 1z"/>
<path d="M5789 3814 c-8 -9 -16 -40 -19 -68 l-5 -51 -52 -3 c-84 -5 -83 0 -83
-322 0 -151 3 -285 6 -297 6 -23 44 -39 104 -45 23 -3 25 -8 28 -55 3 -51 4
-53 40 -63 56 -17 737 -9 754 8 20 20 19 732 -1 755 -9 12 -29 17 -62 17 l-48
0 -6 48 c-9 66 -11 71 -40 82 -15 6 -149 10 -314 10 -255 0 -290 -2 -302 -16z
m595 -50 c3 -9 6 -40 6 -70 0 -59 -1 -59 78 -54 66 3 69 -10 55 -272 l-6 -128
-269 0 c-172 0 -268 -4 -268 -10 0 -6 96 -10 269 -10 l269 0 6 -27 c2 -16 3
-39 1 -53 -2 -14 -4 -60 -4 -103 l-1 -77 -342 2 -343 3 -5 57 c-3 31 -10 62
-15 67 -6 5 -35 11 -65 13 l-55 3 -6 60 c-4 33 -7 148 -8 256 -1 157 2 199 13
208 8 6 18 11 22 10 5 -1 30 -1 57 0 l47 1 0 58 c0 32 5 63 12 70 9 9 85 12
279 12 234 0 268 -2 273 -16z"/>
<path d="M5980 3510 c0 -6 48 -10 125 -10 77 0 125 4 125 10 0 6 -48 10 -125
10 -77 0 -125 -4 -125 -10z"/>
<path d="M8733 3815 c-17 -12 -23 -27 -25 -68 l-3 -52 -54 -5 c-84 -9 -82 0
-79 -332 3 -326 0 -314 84 -326 l49 -7 5 -50 c8 -76 6 -76 346 -73 217 2 295
6 306 16 9 7 18 35 22 62 6 47 8 50 37 50 16 0 45 7 65 15 l35 14 -3 299 c-2
235 -6 302 -17 315 -9 12 -29 17 -62 17 l-48 0 -6 55 c-11 87 -3 85 -340 85
-244 0 -294 -2 -312 -15z m581 -41 c12 -5 16 -21 16 -70 l0 -64 38 -1 c20 -1
41 -1 46 0 6 1 20 0 33 -4 l23 -5 -1 -198 c-1 -108 -4 -226 -8 -262 l-6 -65
-55 -3 c-67 -3 -80 -17 -80 -89 l0 -53 -275 0 -275 0 0 53 c0 72 -13 86 -80
89 l-55 3 -6 60 c-4 33 -7 149 -8 257 -1 225 -4 218 88 218 l51 0 0 60 c0 46
4 61 18 69 18 11 509 15 536 5z"/>
<path d="M8917 3514 c-4 -4 -7 -72 -7 -151 l0 -143 135 0 136 0 -3 148 -3 147
-126 3 c-69 1 -128 -1 -132 -4z m211 -151 l-3 -88 -77 -3 c-89 -3 -85 -8 -80
104 l4 74 79 0 80 0 -3 -87z"/>
<path d="M9570 3810 c-19 -19 -20 -33 -20 -224 0 -199 7 -251 33 -268 7 -4 33
-8 60 -8 l47 0 0 -126 0 -125 35 -15 c19 -7 50 -14 70 -14 28 0 35 -4 35 -20
0 -19 -7 -20 -120 -20 -165 0 -160 5 -160 -185 0 -199 -21 -185 263 -185 265
0 267 1 267 86 l0 54 54 0 c75 0 80 9 86 149 l5 116 48 7 c81 11 87 22 87 160
l0 118 40 0 c23 0 54 7 70 15 l30 16 0 222 c0 185 -3 226 -16 245 -15 21 -21
22 -173 22 -120 0 -162 -3 -177 -14 -16 -12 -19 -29 -22 -118 -4 -158 1 -149
-90 -146 l-77 3 -5 123 c-4 107 -8 126 -24 138 -15 11 -57 14 -173 14 -140 0
-155 -2 -173 -20z m302 -41 c15 -8 18 -28 20 -141 l3 -131 120 -2 c66 -1 126
1 133 3 9 3 12 36 12 121 0 174 -11 161 135 161 68 0 130 -3 139 -6 13 -5 16
-26 16 -124 0 -64 -3 -151 -6 -193 l-7 -76 -61 -3 c-60 -3 -61 -4 -63 -33 -1
-16 -5 -78 -8 -137 l-7 -107 -61 -3 c-54 -3 -62 -6 -64 -23 -1 -11 -5 -73 -8
-137 l-7 -118 -59 0 c-69 0 -79 -11 -79 -89 l0 -51 -204 0 -204 0 -7 121 c-6
98 -5 123 6 130 8 5 72 9 142 9 l128 0 -3 78 -3 77 -60 5 c-69 6 -61 -12 -73
165 l-7 110 -60 5 -60 5 -1 48 c-1 26 -4 50 -8 54 -3 3 -6 68 -6 144 0 123 2
138 18 142 32 9 237 5 254 -4z"/>
<path d="M10542 3805 c-9 -19 -12 -148 -12 -444 0 -384 1 -421 18 -440 l17
-22 448 3 c385 3 449 5 457 18 6 9 10 193 10 449 0 402 -1 435 -17 447 -14 11
-109 13 -464 14 l-446 0 -11 -25z m872 -31 c18 -7 20 -51 10 -177 l-7 -77
-268 0 c-170 0 -269 -4 -269 -10 0 -6 102 -11 273 -12 l272 -3 3 -165 c2 -91
0 -211 -3 -268 l-7 -102 -411 2 -412 3 -8 90 c-4 49 -4 105 0 125 l9 35 272 3
c176 1 271 6 267 12 -4 6 -108 10 -270 10 -189 0 -266 3 -271 12 -4 6 -9 121
-12 254 -4 187 -2 247 8 259 11 13 67 15 410 15 219 0 405 -3 414 -6z"/>
<path d="M7082 3297 c-6 -7 -12 -86 -13 -199 l-2 -187 32 -27 c49 -41 65 -79
63 -156 -2 -59 0 -67 18 -73 53 -17 84 33 68 110 -15 68 -25 187 -21 243 3 32
0 52 -6 52 -62 0 -80 49 -37 100 26 31 60 125 51 140 -9 15 -141 12 -153 -3z"/>
<path d="M3723 3224 c-7 -19 5 -146 16 -157 4 -4 22 16 40 43 18 28 43 55 55
60 11 5 34 17 49 28 l28 19 -70 11 c-92 16 -110 15 -118 -4z"/>
<path d="M9596 3223 c-10 -11 -7 -153 4 -153 6 0 10 6 11 13 10 123 6 161 -15
140z"/>
<path d="M3938 3108 c-35 -12 -35 -28 -3 -58 20 -19 30 -22 43 -14 9 6 28 17
42 25 14 8 27 15 29 16 2 2 -4 12 -14 23 -19 22 -53 24 -97 8z"/>
<path d="M3775 2998 c-43 -15 -52 -25 -59 -63 -5 -23 -21 -46 -51 -73 -45 -39
-81 -51 -155 -52 -32 0 -71 -15 -60 -22 18 -13 79 -26 96 -22 31 8 64 -12 64
-40 0 -43 22 -50 82 -25 72 30 116 72 112 107 -16 125 -16 142 0 166 25 40 23
42 -29 24z"/>
<path d="M8500 2967 c-35 -18 -38 -56 -7 -82 44 -36 68 -98 65 -168 l-3 -62
34 -3 c19 -2 66 3 105 12 101 22 144 26 148 15 2 -6 25 11 51 36 42 42 50 46
79 40 18 -4 38 -14 45 -23 30 -41 34 -43 71 -35 63 13 162 7 175 -11 8 -10 25
-15 52 -13 36 2 40 5 46 34 9 43 26 63 56 63 18 0 28 9 40 37 18 44 30 153 17
153 -5 0 -21 -20 -36 -44 -43 -72 -60 -78 -226 -88 -81 -5 -218 -9 -304 -9
l-158 -1 0 -23 c0 -34 -26 -55 -68 -55 -87 0 -103 22 -52 70 l31 29 -16 56
c-13 42 -23 59 -45 70 -35 18 -67 19 -100 2z"/>
<path d="M10376 2973 c-4 -4 -19 -9 -34 -11 -15 -2 -31 -8 -37 -13 -5 -6 -12
-50 -15 -99 -7 -103 -22 -129 -90 -149 -33 -10 -44 -20 -62 -58 -39 -80 -55
-87 -241 -94 -181 -8 -297 -25 -297 -43 0 -7 15 -20 33 -29 l32 -16 -73 0
c-78 -1 -114 -13 -106 -35 4 -10 40 -15 150 -18 135 -4 145 -6 160 -26 8 -12
21 -22 28 -22 8 0 16 -9 19 -20 3 -12 14 -20 26 -20 18 0 21 -6 21 -41 0 -32
4 -42 19 -46 15 -4 21 -15 23 -47 2 -33 7 -41 23 -41 29 0 34 58 6 77 -11 8
-21 28 -23 48 -2 25 -10 38 -25 45 -13 5 -23 18 -23 28 0 11 -9 21 -20 24 -12
3 -20 14 -20 26 0 19 1 19 19 3 13 -12 27 -15 41 -11 12 4 54 8 93 9 44 2 85
10 106 20 18 10 41 16 51 13 13 -3 17 0 13 9 -3 10 5 16 25 20 32 6 42 25 42
79 0 30 15 58 55 103 18 20 42 60 104 173 11 19 27 41 35 48 28 23 19 56 -19
76 -26 15 -32 22 -23 32 11 13 -3 19 -16 6z"/>
<path d="M11554 2943 c-14 -48 -42 -89 -69 -102 -24 -12 -97 -15 -355 -18
-302 -3 -410 -11 -410 -33 0 -4 19 -15 43 -24 31 -13 87 -18 224 -23 l182 -6
36 -38 c45 -48 65 -46 116 9 29 32 46 42 69 42 49 0 132 39 174 83 38 39 40
39 74 27 36 -13 51 -4 52 28 0 6 5 12 12 12 23 0 -7 17 -68 38 -74 26 -73 26
-80 5z"/>
<path d="M5655 2909 c-27 -59 -52 -71 -159 -79 -57 -5 -105 -14 -126 -25 l-35
-18 50 -12 c47 -11 108 -37 165 -70 37 -22 56 -18 80 14 11 17 46 42 76 57 31
15 58 34 61 41 3 8 -6 26 -19 41 -14 15 -32 40 -39 56 -20 43 -33 42 -54 -5z"/>
<path d="M5088 2898 c-13 -24 -35 -48 -48 -54 -31 -15 -334 -26 -365 -14 -34
13 -276 -11 -282 -27 -3 -8 7 -26 22 -41 15 -15 38 -44 51 -64 14 -21 26 -38
29 -38 3 0 11 15 18 33 20 48 34 54 121 58 l80 4 20 -37 20 -38 106 0 107 0
27 39 c28 40 62 55 150 67 60 9 76 27 48 57 -12 12 -28 39 -37 60 -8 20 -22
37 -29 37 -8 0 -25 -19 -38 -42z"/>
<path d="M5855 2820 c-8 -16 -15 -47 -15 -70 l0 -40 -55 0 c-46 0 -56 -3 -67
-22 -10 -17 -14 -115 -16 -393 -4 -362 1 -477 18 -504 5 -8 32 -16 64 -19 l55
-4 3 -51 c3 -43 7 -54 28 -64 31 -15 574 -18 614 -3 22 8 25 16 28 62 l3 53
55 8 c32 4 60 14 68 24 18 25 17 303 -2 329 -13 17 -29 19 -163 22 -86 2 -159
-1 -175 -7 -27 -10 -31 -18 -43 -93 l-6 -38 -80 0 -79 0 2 228 3 227 77 3 77
3 5 -33 c3 -18 7 -44 8 -58 5 -41 39 -50 191 -50 104 0 145 4 167 15 l30 16 0
152 c0 184 -4 194 -83 199 l-52 3 -5 54 c-4 36 -12 58 -25 67 -15 11 -78 14
-317 14 l-297 0 -16 -30z m605 -100 l5 -65 60 -3 c33 -2 64 -7 69 -12 5 -5 5
-60 1 -124 l-7 -116 -134 0 -134 0 0 53 c0 86 -5 88 -150 85 l-125 -3 0 -290
0 -290 130 0 130 0 3 45 c5 96 -5 90 147 90 86 0 136 -4 141 -11 3 -6 3 -62
-1 -125 l-7 -114 -59 0 c-69 0 -79 -11 -79 -89 l0 -51 -275 0 -275 0 0 58 c0
32 -5 63 -12 70 -7 7 -36 12 -64 12 -29 0 -55 4 -59 9 -8 14 -18 728 -10 768
6 32 7 32 68 35 l62 3 3 55 c1 30 5 61 7 68 4 10 65 12 282 10 l278 -3 5 -65z"/>
<path d="M6703 2835 l-23 -16 0 -574 c0 -508 2 -575 16 -589 23 -24 335 -24
358 0 14 14 16 81 16 588 0 521 -2 575 -17 587 -12 10 -58 15 -172 17 -130 2
-160 0 -178 -13z m315 -490 c2 -242 0 -486 -3 -542 l-7 -103 -132 0 -133 0 -7
77 c-8 103 -8 998 1 1007 4 3 68 5 142 4 l136 -3 3 -440z"/>
<path d="M8100 2830 c-20 -20 -21 -29 -18 -591 3 -552 4 -571 22 -585 27 -19
717 -21 756 -1 20 10 26 22 30 62 l5 50 54 7 c29 3 58 11 65 18 17 17 20 577
3 610 -10 21 -22 26 -67 30 l-55 5 -3 45 c-2 29 -11 53 -24 68 -21 21 -27 22
-210 22 l-188 0 0 120 c0 166 7 160 -195 160 -142 0 -157 -2 -175 -20z m320
-180 l5 -135 207 -3 207 -2 3 -68 3 -67 65 -5 65 -5 3 -150 c2 -82 0 -201 -3
-262 l-7 -113 -59 0 c-69 0 -79 -11 -79 -89 l0 -51 -344 0 -343 0 -7 92 c-8
122 -8 983 1 992 4 3 68 5 142 4 l136 -3 5 -135z"/>
<path d="M8425 2247 c-3 -7 -4 -76 -3 -152 l3 -140 130 0 130 0 0 150 0 150
-128 3 c-99 2 -129 0 -132 -11z m207 -73 c2 -9 2 -49 0 -90 l-4 -74 -79 0 -79
0 0 90 0 90 79 0 c65 0 80 -3 83 -16z"/>
<path d="M6580 2820 c0 -13 5 -20 13 -17 6 2 12 10 12 17 0 7 -6 15 -12 18 -8
2 -13 -5 -13 -18z"/>
<path d="M7815 2823 c-50 -4 -157 -23 -168 -30 -11 -7 43 -63 60 -63 8 0 25
-11 39 -25 22 -22 36 -25 128 -31 l104 -7 10 39 c23 87 24 106 11 115 -13 8
-99 9 -184 2z"/>
<path d="M9430 2701 c0 -5 -8 -11 -17 -13 -12 -2 -14 -6 -7 -10 6 -4 19 -1 29
6 13 9 15 15 7 20 -7 4 -12 3 -12 -3z"/>
<path d="M7120 2550 c-20 -20 -21 -30 -18 -385 2 -278 6 -367 16 -377 7 -7 36
-15 65 -18 l52 -5 3 -53 c3 -46 6 -54 28 -62 28 -11 553 -14 603 -4 32 7 33 9
46 87 6 35 8 37 41 37 36 0 73 15 86 34 4 6 8 174 8 373 l0 362 -22 15 c-31
22 -314 23 -344 2 -18 -13 -19 -32 -24 -278 l-5 -263 -80 0 -80 0 -2 260 c-3
251 -4 261 -24 278 -18 14 -43 17 -175 17 -142 0 -156 -2 -174 -20z m318 -317
l2 -273 23 -5 c12 -3 72 -5 132 -3 l110 3 3 278 2 278 143 -3 142 -3 3 -200
c2 -110 0 -260 -3 -332 l-7 -133 -59 0 c-69 0 -79 -11 -79 -89 l0 -51 -275 0
-275 0 0 44 c0 25 -4 56 -10 70 -9 24 -14 26 -68 26 l-59 0 -6 83 c-4 45 -7
196 -7 335 l0 253 143 -3 142 -3 3 -272z"/>
<path d="M9124 2437 c-3 -8 -4 -34 -2 -58 2 -36 7 -45 25 -47 26 -4 47 30 39
61 -3 12 -17 30 -31 40 -21 15 -26 16 -31 4z"/>
<path d="M10660 2395 c-10 -12 -9 -16 5 -21 19 -8 40 9 31 25 -10 15 -21 14
-36 -4z"/>
<path d="M6165 2278 c4 -62 10 -116 14 -120 3 -3 23 13 44 38 l39 44 -38 75
c-55 110 -68 102 -59 -37z"/>
<path d="M10746 2345 c-13 -14 -28 -25 -34 -25 -12 0 -25 -89 -20 -140 3 -34
4 -35 48 -38 69 -4 87 -10 93 -32 4 -17 13 -20 60 -20 43 0 59 -4 69 -18 7
-10 21 -21 31 -25 15 -6 17 -17 15 -84 l-3 -78 -61 -3 c-55 -3 -62 -1 -67 18
-4 17 -13 20 -64 20 -54 0 -61 2 -71 26 -10 20 -18 25 -44 22 -37 -4 -61 -33
-38 -48 8 -5 29 -10 45 -10 19 0 35 -7 42 -19 7 -12 29 -21 60 -26 29 -4 53
-14 61 -26 11 -15 26 -19 79 -19 55 0 66 3 70 19 3 11 13 21 24 24 16 4 19 15
19 74 0 58 4 75 25 103 22 30 25 44 25 122 0 82 -2 91 -25 112 -14 13 -25 28
-25 35 0 6 -5 11 -10 11 -6 0 -20 11 -32 25 -21 24 -26 25 -135 25 -109 0
-115 -1 -137 -25z"/>
<path d="M10617 2353 c-4 -3 -7 -24 -7 -45 0 -31 -4 -38 -19 -38 -21 0 -36
-26 -20 -36 15 -9 39 3 39 20 0 8 9 18 20 21 16 5 20 15 20 46 0 37 -15 51
-33 32z"/>
</g>
</svg>
